<svg width="24" height="25" viewBox="0 0 24 25" fill="none" xmlns="http://www.w3.org/2000/svg">
<path d="M8 3.97998H7.8C6.12 3.97998 5.28 3.97998 4.638 4.30698C4.07354 4.5946 3.61462 5.05352 3.327 5.61798C3 6.25998 3 7.09998 3 8.77998V8.97998M8 21.98H7.8C6.12 21.98 5.28 21.98 4.638 21.653C4.07354 21.3654 3.61462 20.9064 3.327 20.342C3 19.7 3 18.86 3 17.18V16.98M21 8.97998V8.77998C21 7.09998 21 6.25998 20.673 5.61798C20.3854 5.05352 19.9265 4.5946 19.362 4.30698C18.72 3.97998 17.88 3.97998 16.2 3.97998H16M21 16.98V17.18C21 18.86 21 19.7 20.673 20.342C20.3854 20.9064 19.9265 21.3654 19.362 21.653C18.72 21.98 17.88 21.98 16.2 21.98H16M3 12.98H3.01M7.5 12.98H7.51M16.5 12.98H16.51M12 12.98H12.01M21 12.98H21.01" stroke="#059855" stroke-width="2"/>
</svg>
