<svg width="24" height="25" viewBox="0 0 24 25" fill="none" xmlns="http://www.w3.org/2000/svg">
<path d="M17.2 14.2302C17.477 14.2302 17.616 14.2302 17.728 14.2922C17.8252 14.3479 17.9022 14.433 17.948 14.5352C17.998 14.6532 17.985 14.7782 17.96 15.0292C17.8088 16.5358 17.2331 17.9685 16.2999 19.1609C15.3667 20.3532 14.1142 21.2563 12.6881 21.765C11.262 22.2738 9.72075 22.3674 8.24355 22.035C6.76634 21.7025 5.41381 20.9577 4.34315 19.887C3.27248 18.8164 2.52765 17.4638 2.1952 15.9866C1.86276 14.5094 1.95637 12.9682 2.46514 11.5421C2.97391 10.116 3.87695 8.86352 5.06932 7.9303C6.26169 6.99708 7.69442 6.4214 9.201 6.27017C9.452 6.24517 9.577 6.23217 9.695 6.28217C9.79721 6.32799 9.88228 6.405 9.938 6.50217C10 6.61517 10 6.75317 10 7.03017V13.4302C10 13.7102 10 13.8502 10.055 13.9572C10.1027 14.0514 10.179 14.128 10.273 14.1762C10.38 14.2302 10.52 14.2302 10.8 14.2302H17.2ZM14 3.03017C14 2.75317 14 2.61517 14.062 2.50217C14.1177 2.405 14.2028 2.32799 14.305 2.28217C14.422 2.23217 14.548 2.24517 14.799 2.27017C16.6355 2.45451 18.3517 3.2682 19.6569 4.57332C20.962 5.87844 21.7757 7.59469 21.96 9.43117C21.985 9.68217 21.998 9.80817 21.948 9.92517C21.9024 10.0278 21.8253 10.1132 21.728 10.1692C21.615 10.2302 21.477 10.2302 21.2 10.2302H14.8C14.52 10.2302 14.38 10.2302 14.273 10.1762C14.179 10.128 14.1027 10.0514 14.055 9.95717C14 9.85017 14 9.71017 14 9.43017V3.03017Z" stroke="#EC4A0B" stroke-width="2"/>
</svg>
