<svg width="24" height="25" viewBox="0 0 24 25" fill="none" xmlns="http://www.w3.org/2000/svg">
<path d="M22 11.23L21.526 7.43498C21.34 5.94598 21.246 5.20198 20.896 4.64098C20.5874 4.14674 20.1416 3.75304 19.613 3.50798C19.013 3.22998 18.263 3.22998 16.763 3.22998H7.237C5.737 3.22998 4.987 3.22998 4.387 3.50798C3.85838 3.75304 3.41257 4.14674 3.104 4.64098C2.754 5.20098 2.66 5.94598 2.474 7.43498L2 11.23M5.5 15.23H18.5M5.5 15.23C5.04037 15.23 4.58525 15.1395 4.16061 14.9636C3.73597 14.7877 3.35013 14.5299 3.02513 14.2049C2.70012 13.8798 2.44231 13.494 2.26642 13.0694C2.09053 12.6447 2 12.1896 2 11.73C2 11.2704 2.09053 10.8152 2.26642 10.3906C2.44231 9.96595 2.70012 9.58011 3.02513 9.25511C3.35013 8.9301 3.73597 8.67229 4.16061 8.4964C4.58525 8.32051 5.04037 8.22998 5.5 8.22998H18.5C18.9596 8.22998 19.4148 8.32051 19.8394 8.4964C20.264 8.67229 20.6499 8.9301 20.9749 9.25511C21.2999 9.58011 21.5577 9.96595 21.7336 10.3906C21.9095 10.8152 22 11.2704 22 11.73C22 12.1896 21.9095 12.6447 21.7336 13.0694C21.5577 13.494 21.2999 13.8798 20.9749 14.2049C20.6499 14.5299 20.264 14.7877 19.8394 14.9636C19.4148 15.1395 18.9596 15.23 18.5 15.23M5.5 15.23C4.57174 15.23 3.6815 15.5987 3.02513 16.2551C2.36875 16.9115 2 17.8017 2 18.73C2 19.6582 2.36875 20.5485 3.02513 21.2049C3.6815 21.8612 4.57174 22.23 5.5 22.23H18.5C19.4283 22.23 20.3185 21.8612 20.9749 21.2049C21.6313 20.5485 22 19.6582 22 18.73C22 17.8017 21.6313 16.9115 20.9749 16.2551C20.3185 15.5987 19.4283 15.23 18.5 15.23M6 11.73H6.01M6 18.73H6.01M12 11.73H18M12 18.73H18" stroke="#6941C6" stroke-width="2"/>
</svg>
