<svg width="26" height="24" viewBox="0 0 26 24" fill="none" xmlns="http://www.w3.org/2000/svg">
<path d="M10.4199 18.5H16.4199M8.41992 15H18.4199M6.41992 2H20.4199C21.5239 2 22.4199 2.995 22.4199 4.222V19.778C22.4199 21.005 21.5239 22 20.4199 22H6.41992C5.31492 22 4.41992 21.005 4.41992 19.778V4.222C4.41992 2.995 5.31492 2 6.41992 2ZM13.4169 6.212C12.7169 5.432 11.5509 5.223 10.6739 5.937C9.79692 6.65 9.67392 7.843 10.3619 8.687C11.0509 9.531 13.4169 11.5 13.4169 11.5C13.4169 11.5 15.7839 9.53 16.4729 8.687C17.1609 7.843 17.0529 6.643 16.1609 5.937C15.2689 5.231 14.1169 5.433 13.4169 6.212Z" stroke="#3686FD" stroke-width="1.66" stroke-linecap="round" stroke-linejoin="round"/>
</svg>
