<svg width="26" height="24" viewBox="0 0 26 24" fill="none" xmlns="http://www.w3.org/2000/svg">
<path d="M3.08984 7L11.2548 12.715C11.9148 13.178 12.2458 13.41 12.6058 13.499C12.9233 13.5781 13.2554 13.5781 13.5728 13.499C13.9328 13.409 14.2628 13.179 14.9248 12.715L23.0898 7M7.88984 20H18.2898C19.9698 20 20.8098 20 21.4518 19.673C22.0159 19.3852 22.4745 18.9263 22.7618 18.362C23.0898 17.72 23.0898 16.88 23.0898 15.2V8.8C23.0898 7.12 23.0898 6.28 22.7628 5.638C22.4752 5.07354 22.0163 4.61462 21.4518 4.327C20.8098 4 19.9698 4 18.2898 4H7.88984C6.20984 4 5.36984 4 4.72784 4.327C4.16338 4.61462 3.70446 5.07354 3.41684 5.638C3.08984 6.28 3.08984 7.12 3.08984 8.8V15.2C3.08984 16.88 3.08984 17.72 3.41684 18.362C3.7042 18.9263 4.16275 19.3852 4.72684 19.673C5.36984 20 6.20984 20 7.88984 20Z" stroke="#3686FD" stroke-width="1.66" stroke-linecap="round" stroke-linejoin="round"/>
</svg>
