<svg width="24" height="25" viewBox="0 0 24 25" fill="none" xmlns="http://www.w3.org/2000/svg">
<path d="M12 15.98C12.7956 15.98 13.5587 15.6639 14.1213 15.1013C14.6839 14.5387 15 13.7756 15 12.98C15 12.1843 14.6839 11.4213 14.1213 10.8587C13.5587 10.2961 12.7956 9.97998 12 9.97998C11.2044 9.97998 10.4413 10.2961 9.87868 10.8587C9.31607 11.4213 9 12.1843 9 12.98C9 13.7756 9.31607 14.5387 9.87868 15.1013C10.4413 15.6639 11.2044 15.98 12 15.98Z" stroke="#059855" stroke-width="2"/>
<path d="M18.727 15.707C18.6059 15.9813 18.5697 16.2855 18.6232 16.5805C18.6767 16.8755 18.8173 17.1477 19.027 17.362L19.082 17.416C19.2514 17.5847 19.3857 17.7852 19.4774 18.006C19.5691 18.2268 19.6163 18.4635 19.6163 18.7025C19.6163 18.9416 19.5691 19.1783 19.4774 19.399C19.3857 19.6198 19.2514 19.8203 19.082 19.989C18.9131 20.1581 18.7126 20.2923 18.4919 20.3838C18.2711 20.4753 18.0345 20.5225 17.7955 20.5225C17.5565 20.5225 17.3199 20.4753 17.0991 20.3838C16.8784 20.2923 16.6779 20.1581 16.509 19.989L16.454 19.934C16.2398 19.7245 15.9678 19.584 15.673 19.5305C15.3782 19.4771 15.0741 19.5131 14.8 19.634C14.5309 19.7491 14.3014 19.9405 14.1397 20.1844C13.978 20.4284 13.8912 20.7143 13.89 21.007V21.162C13.89 21.6442 13.6985 22.1066 13.3575 22.4475C13.0166 22.7885 12.5542 22.98 12.072 22.98C11.5898 22.98 11.1274 22.7885 10.7865 22.4475C10.4455 22.1066 10.254 21.6442 10.254 21.162V21.08C10.2471 20.7791 10.1498 20.4873 9.97488 20.2425C9.79993 19.9976 9.55538 19.811 9.273 19.707C8.99875 19.5859 8.69449 19.5497 8.3995 19.6032C8.1045 19.6567 7.83229 19.7973 7.618 20.007L7.564 20.062C7.30979 20.3172 6.9855 20.4911 6.63228 20.5617C6.27906 20.6323 5.91284 20.5964 5.58007 20.4585C5.2473 20.3206 4.96299 20.087 4.76322 19.7873C4.56345 19.4875 4.45721 19.1352 4.458 18.775C4.45801 18.5361 4.50508 18.2996 4.59654 18.079C4.68799 17.8583 4.82203 17.6578 4.991 17.489L5.045 17.434C5.25447 17.2198 5.39499 16.9478 5.44846 16.653C5.50193 16.3582 5.46589 16.0541 5.345 15.78C5.22995 15.5111 5.03877 15.2816 4.795 15.12C4.55123 14.9583 4.26551 14.8714 3.973 14.87H3.818C3.33584 14.87 2.87342 14.6785 2.53248 14.3375C2.19154 13.9966 2 13.5342 2 13.052C2 12.5698 2.19154 12.1074 2.53248 11.7665C2.87342 11.4255 3.33584 11.234 3.818 11.234H3.9C4.20085 11.2271 4.49267 11.1298 4.73753 10.9549C4.98238 10.7799 5.16896 10.5354 5.273 10.253C5.39411 9.97875 5.43027 9.6745 5.37679 9.3795C5.32332 9.0845 5.18267 8.8123 4.973 8.598L4.918 8.544C4.74899 8.37506 4.61491 8.17448 4.52342 7.95371C4.43192 7.73295 4.38481 7.49633 4.38476 7.25736C4.38471 7.01839 4.43174 6.78175 4.52314 6.56095C4.61455 6.34015 4.74855 6.13952 4.9175 5.9705C5.08645 5.80149 5.28703 5.66741 5.50779 5.57592C5.72855 5.48443 5.96517 5.43731 6.20415 5.43726C6.44312 5.43722 6.67976 5.48424 6.90056 5.57565C7.12136 5.66706 7.32199 5.80106 7.491 5.97L7.545 6.024C7.75929 6.23368 8.0315 6.37432 8.3265 6.4278C8.62149 6.48127 8.92575 6.44512 9.2 6.324H9.273C9.54175 6.2088 9.77097 6.01756 9.93247 5.7738C10.094 5.53005 10.1807 5.2444 10.182 4.952V4.797C10.182 4.31484 10.3735 3.85242 10.7145 3.51148C11.0554 3.17054 11.5178 2.979 12 2.979C12.4822 2.979 12.9446 3.17054 13.2855 3.51148C13.6265 3.85242 13.818 4.31484 13.818 4.797V4.88C13.8191 5.17271 13.9058 5.45871 14.0675 5.7027C14.2292 5.94669 14.4588 6.13799 14.728 6.253C15.0021 6.3739 15.3062 6.40993 15.601 6.35646C15.8958 6.30299 16.1678 6.16247 16.382 5.953L16.436 5.898C16.6048 5.72877 16.8053 5.59451 17.0261 5.5029C17.2468 5.41128 17.4835 5.36413 17.7225 5.36413C17.9615 5.36413 18.1982 5.41128 18.4189 5.5029C18.6397 5.59451 18.8402 5.72877 19.009 5.898C19.178 6.06692 19.312 6.26748 19.4035 6.48822C19.495 6.70897 19.542 6.94556 19.542 7.1845C19.542 7.42344 19.495 7.66004 19.4035 7.88078C19.312 8.10152 19.178 8.30208 19.009 8.471L18.954 8.525C18.7443 8.7393 18.6037 9.0115 18.5502 9.3065C18.4967 9.6015 18.5329 9.90575 18.654 10.18V10.253C18.7693 10.5219 18.9607 10.7512 19.2046 10.9127C19.4486 11.0743 19.7344 11.1609 20.027 11.162H20.182C20.6642 11.162 21.1266 11.3535 21.4675 11.6945C21.8085 12.0354 22 12.4978 22 12.98C22 13.4622 21.8085 13.9246 21.4675 14.2655C21.1266 14.6065 20.6642 14.798 20.182 14.798H20.1C19.8073 14.7991 19.5213 14.8858 19.2773 15.0475C19.0333 15.2092 18.842 15.4378 18.727 15.707Z" stroke="#059855" stroke-width="2"/>
</svg>
