<svg width="24" height="25" viewBox="0 0 24 25" fill="none" xmlns="http://www.w3.org/2000/svg">
<path d="M11.9999 12.9799H12.0099M15.5349 16.5159C10.8489 21.2019 5.46685 23.4179 3.51485 21.4659C1.56185 19.5129 3.77785 14.1309 8.46385 9.44488C13.1499 4.75788 18.5319 2.54188 20.4839 4.49488C22.4369 6.44688 20.2209 11.8289 15.5349 16.5149V16.5159ZM15.5349 9.44388C20.2209 14.1309 22.4369 19.5129 20.4849 21.4649C18.5319 23.4179 13.1499 21.2019 8.46385 16.5149C3.77785 11.8289 1.56185 6.44688 3.51385 4.49488C5.46685 2.54188 10.8489 4.75788 15.5349 9.44488V9.44388ZM12.4989 12.9799C12.4989 13.1125 12.4462 13.2397 12.3524 13.3334C12.2586 13.4272 12.1315 13.4799 11.9989 13.4799C11.8662 13.4799 11.7391 13.4272 11.6453 13.3334C11.5515 13.2397 11.4989 13.1125 11.4989 12.9799C11.4989 12.8473 11.5515 12.7201 11.6453 12.6263C11.7391 12.5326 11.8662 12.4799 11.9989 12.4799C12.1315 12.4799 12.2586 12.5326 12.3524 12.6263C12.4462 12.7201 12.4989 12.8473 12.4989 12.9799Z" stroke="#059855" stroke-width="2"/>
</svg>
