<svg width="31" height="30" viewBox="0 0 31 30" fill="none" xmlns="http://www.w3.org/2000/svg">
<g filter="url(#filter0_ddi_169_181)">
<rect x="3.71973" y="2" width="24" height="24" rx="12" fill="white" fill-opacity="0.01" shape-rendering="crispEdges"/>
<path d="M15.7197 15.5C16.1176 15.5 16.4991 15.342 16.7804 15.0607C17.0617 14.7794 17.2197 14.3978 17.2197 14C17.2197 13.6022 17.0617 13.2206 16.7804 12.9393C16.4991 12.658 16.1176 12.5 15.7197 12.5C15.3219 12.5 14.9404 12.658 14.6591 12.9393C14.3778 13.2206 14.2197 13.6022 14.2197 14C14.2197 14.3978 14.3778 14.7794 14.6591 15.0607C14.9404 15.342 15.3219 15.5 15.7197 15.5Z" stroke="#DD2590"/>
<path d="M19.0832 15.3635C19.0227 15.5006 19.0046 15.6528 19.0313 15.8003C19.0581 15.9478 19.1284 16.0839 19.2332 16.191L19.2607 16.218C19.3454 16.3024 19.4126 16.4026 19.4584 16.513C19.5043 16.6234 19.5279 16.7417 19.5279 16.8613C19.5279 16.9808 19.5043 17.0991 19.4584 17.2095C19.4126 17.3199 19.3454 17.4202 19.2607 17.5045C19.1763 17.5891 19.076 17.6561 18.9657 17.7019C18.8553 17.7477 18.737 17.7712 18.6175 17.7712C18.498 17.7712 18.3797 17.7477 18.2693 17.7019C18.1589 17.6561 18.0587 17.5891 17.9742 17.5045L17.9467 17.477C17.8396 17.3723 17.7036 17.302 17.5562 17.2753C17.4088 17.2485 17.2568 17.2666 17.1197 17.327C16.9852 17.3846 16.8704 17.4802 16.7896 17.6022C16.7087 17.7242 16.6653 17.8672 16.6647 18.0135V18.091C16.6647 18.3321 16.569 18.5633 16.3985 18.7338C16.228 18.9042 15.9968 19 15.7557 19C15.5146 19 15.2834 18.9042 15.113 18.7338C14.9425 18.5633 14.8467 18.3321 14.8467 18.091V18.05C14.8433 17.8996 14.7946 17.7537 14.7072 17.6312C14.6197 17.5088 14.4974 17.4155 14.3562 17.3635C14.2191 17.303 14.067 17.2849 13.9195 17.3116C13.772 17.3384 13.6359 17.4087 13.5287 17.5135L13.5017 17.541C13.3746 17.6686 13.2125 17.7556 13.0359 17.7909C12.8593 17.8262 12.6761 17.8082 12.5098 17.7393C12.3434 17.6703 12.2012 17.5535 12.1013 17.4036C12.0015 17.2538 11.9483 17.0776 11.9487 16.8975C11.9487 16.7781 11.9723 16.6598 12.018 16.5495C12.0637 16.4392 12.1307 16.3389 12.2152 16.2545L12.2422 16.227C12.347 16.1199 12.4172 15.9839 12.444 15.8365C12.4707 15.6891 12.4527 15.5371 12.3922 15.4C12.3347 15.2655 12.2391 15.1508 12.1172 15.07C11.9953 14.9891 11.8525 14.9457 11.7062 14.945H11.6287C11.3876 14.945 11.1564 14.8492 10.986 14.6788C10.8155 14.5083 10.7197 14.2771 10.7197 14.036C10.7197 13.7949 10.8155 13.5637 10.986 13.3933C11.1564 13.2228 11.3876 13.127 11.6287 13.127H11.6697C11.8202 13.1236 11.9661 13.0749 12.0885 12.9874C12.2109 12.9 12.3042 12.7777 12.3562 12.6365C12.4168 12.4994 12.4349 12.3473 12.4081 12.1998C12.3814 12.0523 12.3111 11.9162 12.2062 11.809L12.1787 11.782C12.0942 11.6975 12.0272 11.5972 11.9814 11.4869C11.9357 11.3765 11.9121 11.2582 11.9121 11.1387C11.9121 11.0192 11.9356 10.9009 11.9813 10.7905C12.027 10.6801 12.094 10.5798 12.1785 10.4953C12.2629 10.4108 12.3632 10.3437 12.4736 10.298C12.584 10.2522 12.7023 10.2287 12.8218 10.2286C12.9413 10.2286 13.0596 10.2521 13.17 10.2978C13.2804 10.3435 13.3807 10.4105 13.4652 10.495L13.4922 10.522C13.5994 10.6268 13.7355 10.6972 13.883 10.7239C14.0305 10.7506 14.1826 10.7326 14.3197 10.672H14.3562C14.4906 10.6144 14.6052 10.5188 14.686 10.3969C14.7667 10.275 14.8101 10.1322 14.8107 9.98601V9.90851C14.8107 9.66743 14.9065 9.43622 15.077 9.26575C15.2474 9.09528 15.4786 8.99951 15.7197 8.99951C15.9608 8.99951 16.192 9.09528 16.3625 9.26575C16.533 9.43622 16.6287 9.66743 16.6287 9.90851V9.95001C16.6293 10.0964 16.6726 10.2394 16.7535 10.3614C16.8343 10.4834 16.9491 10.579 17.0837 10.6365C17.2208 10.697 17.3728 10.715 17.5202 10.6882C17.6676 10.6615 17.8036 10.5912 17.9107 10.4865L17.9377 10.459C18.0221 10.3744 18.1224 10.3073 18.2328 10.2615C18.3431 10.2157 18.4615 10.1921 18.581 10.1921C18.7005 10.1921 18.8188 10.2157 18.9292 10.2615C19.0396 10.3073 19.1398 10.3744 19.2242 10.459C19.3087 10.5435 19.3758 10.6438 19.4215 10.7541C19.4672 10.8645 19.4907 10.9828 19.4907 11.1023C19.4907 11.2217 19.4672 11.34 19.4215 11.4504C19.3758 11.5608 19.3087 11.6611 19.2242 11.7455L19.1967 11.7725C19.0919 11.8797 19.0216 12.0158 18.9948 12.1633C18.9681 12.3108 18.9862 12.4629 19.0467 12.6V12.6365C19.1044 12.771 19.2001 12.8856 19.322 12.9664C19.444 13.0471 19.5869 13.0905 19.7332 13.091H19.8107C20.0518 13.091 20.283 13.1868 20.4535 13.3573C20.624 13.5277 20.7197 13.7589 20.7197 14C20.7197 14.2411 20.624 14.4723 20.4535 14.6428C20.283 14.8132 20.0518 14.909 19.8107 14.909H19.7697C19.6234 14.9095 19.4804 14.9529 19.3584 15.0338C19.2364 15.1146 19.1407 15.2289 19.0832 15.3635Z" stroke="#DD2590"/>
</g>
<defs>
<filter id="filter0_ddi_169_181" x="0.719727" y="0" width="30" height="30" filterUnits="userSpaceOnUse" color-interpolation-filters="sRGB">
<feFlood flood-opacity="0" result="BackgroundImageFix"/>
<feColorMatrix in="SourceAlpha" type="matrix" values="0 0 0 0 0 0 0 0 0 0 0 0 0 0 0 0 0 0 127 0" result="hardAlpha"/>
<feMorphology radius="1" operator="dilate" in="SourceAlpha" result="effect1_dropShadow_169_181"/>
<feOffset/>
<feComposite in2="hardAlpha" operator="out"/>
<feColorMatrix type="matrix" values="0 0 0 0 0.921569 0 0 0 0 0.921569 0 0 0 0 0.921569 0 0 0 1 0"/>
<feBlend mode="normal" in2="BackgroundImageFix" result="effect1_dropShadow_169_181"/>
<feColorMatrix in="SourceAlpha" type="matrix" values="0 0 0 0 0 0 0 0 0 0 0 0 0 0 0 0 0 0 127 0" result="hardAlpha"/>
<feOffset dy="1"/>
<feGaussianBlur stdDeviation="1.5"/>
<feComposite in2="hardAlpha" operator="out"/>
<feColorMatrix type="matrix" values="0 0 0 0 0.560784 0 0 0 0 0.560784 0 0 0 0 0.560784 0 0 0 0.2 0"/>
<feBlend mode="normal" in2="effect1_dropShadow_169_181" result="effect2_dropShadow_169_181"/>
<feBlend mode="normal" in="SourceGraphic" in2="effect2_dropShadow_169_181" result="shape"/>
<feColorMatrix in="SourceAlpha" type="matrix" values="0 0 0 0 0 0 0 0 0 0 0 0 0 0 0 0 0 0 127 0" result="hardAlpha"/>
<feOffset dy="-2.4"/>
<feComposite in2="hardAlpha" operator="arithmetic" k2="-1" k3="1"/>
<feColorMatrix type="matrix" values="0 0 0 0 0.243137 0 0 0 0 0.243137 0 0 0 0 0.243137 0 0 0 0.04 0"/>
<feBlend mode="normal" in2="shape" result="effect3_innerShadow_169_181"/>
</filter>
</defs>
</svg>
