<svg width="24" height="25" viewBox="0 0 24 25" fill="none" xmlns="http://www.w3.org/2000/svg">
<path d="M10 7.72998H3M21 7.72998H14M14 7.98198C17.45 8.86998 20 12.002 20 15.73M4 15.73C4 12.002 6.55 8.86998 10 7.98198M3.6 19.73H4.4C4.96 19.73 5.24 19.73 5.454 19.621C5.64215 19.5251 5.79513 19.3721 5.891 19.184C6 18.97 6 18.69 6 18.13V17.33C6 16.77 6 16.49 5.891 16.276C5.79513 16.0878 5.64215 15.9349 5.454 15.839C5.24 15.73 4.96 15.73 4.4 15.73H3.6C3.04 15.73 2.76 15.73 2.546 15.839C2.35785 15.9349 2.20487 16.0878 2.109 16.276C2 16.49 2 16.77 2 17.33V18.13C2 18.69 2 18.97 2.109 19.184C2.20487 19.3721 2.35785 19.5251 2.546 19.621C2.76 19.73 3.04 19.73 3.6 19.73ZM11.6 9.72998H12.4C12.96 9.72998 13.24 9.72998 13.454 9.62098C13.6422 9.52511 13.7951 9.37213 13.891 9.18398C14 8.96998 14 8.68998 14 8.12998V7.32998C14 6.76998 14 6.48998 13.891 6.27598C13.7951 6.08783 13.6422 5.93485 13.454 5.83898C13.24 5.72998 12.96 5.72998 12.4 5.72998H11.6C11.04 5.72998 10.76 5.72998 10.546 5.83898C10.3578 5.93485 10.2049 6.08783 10.109 6.27598C10 6.48998 10 6.76998 10 7.32998V8.12998C10 8.68998 10 8.96998 10.109 9.18398C10.2049 9.37213 10.3578 9.52511 10.546 9.62098C10.76 9.72998 11.04 9.72998 11.6 9.72998ZM19.6 19.73H20.4C20.96 19.73 21.24 19.73 21.454 19.621C21.6422 19.5251 21.7951 19.3721 21.891 19.184C22 18.97 22 18.69 22 18.13V17.33C22 16.77 22 16.49 21.891 16.276C21.7951 16.0878 21.6422 15.9349 21.454 15.839C21.24 15.73 20.96 15.73 20.4 15.73H19.6C19.04 15.73 18.76 15.73 18.546 15.839C18.3578 15.9349 18.2049 16.0878 18.109 16.276C18 16.49 18 16.77 18 17.33V18.13C18 18.69 18 18.97 18.109 19.184C18.2049 19.3721 18.3578 19.5251 18.546 19.621C18.76 19.73 19.04 19.73 19.6 19.73ZM22 7.72998C22 7.9952 21.8946 8.24955 21.7071 8.43709C21.5196 8.62462 21.2652 8.72998 21 8.72998C20.7348 8.72998 20.4804 8.62462 20.2929 8.43709C20.1054 8.24955 20 7.9952 20 7.72998C20 7.46476 20.1054 7.21041 20.2929 7.02287C20.4804 6.83534 20.7348 6.72998 21 6.72998C21.2652 6.72998 21.5196 6.83534 21.7071 7.02287C21.8946 7.21041 22 7.46476 22 7.72998ZM4 7.72998C4 7.9952 3.89464 8.24955 3.70711 8.43709C3.51957 8.62462 3.26522 8.72998 3 8.72998C2.73478 8.72998 2.48043 8.62462 2.29289 8.43709C2.10536 8.24955 2 7.9952 2 7.72998C2 7.46476 2.10536 7.21041 2.29289 7.02287C2.48043 6.83534 2.73478 6.72998 3 6.72998C3.26522 6.72998 3.51957 6.83534 3.70711 7.02287C3.89464 7.21041 4 7.46476 4 7.72998Z" stroke="#6941C6" stroke-width="2"/>
</svg>
