<svg width="31" height="30" viewBox="0 0 31 30" fill="none" xmlns="http://www.w3.org/2000/svg">
<g filter="url(#filter0_ddi_169_160)">
<rect x="3.71973" y="2" width="24" height="24" rx="12" fill="white" fill-opacity="0.01" shape-rendering="crispEdges"/>
<path d="M15.7197 13.9999H15.7247M17.4872 15.7679C15.1442 18.1109 12.4532 19.2189 11.4772 18.2429C10.5007 17.2664 11.6087 14.5754 13.9517 12.2324C16.2947 9.88895 18.9857 8.78095 19.9617 9.75745C20.9382 10.7334 19.8302 13.4244 17.4872 15.7674V15.7679ZM17.4872 12.2319C19.8302 14.5754 20.9382 17.2664 19.9622 18.2424C18.9857 19.2189 16.2947 18.1109 13.9517 15.7674C11.6087 13.4244 10.5007 10.7334 11.4767 9.75745C12.4532 8.78095 15.1442 9.88895 17.4872 12.2324V12.2319ZM15.9692 13.9999C15.9692 14.0663 15.9428 14.1298 15.8959 14.1767C15.849 14.2236 15.7855 14.2499 15.7192 14.2499C15.6528 14.2499 15.5893 14.2236 15.5424 14.1767C15.4955 14.1298 15.4692 14.0663 15.4692 13.9999C15.4692 13.9336 15.4955 13.8701 15.5424 13.8232C15.5893 13.7763 15.6528 13.7499 15.7192 13.7499C15.7855 13.7499 15.849 13.7763 15.8959 13.8232C15.9428 13.8701 15.9692 13.9336 15.9692 13.9999Z" stroke="#F04438"/>
</g>
<defs>
<filter id="filter0_ddi_169_160" x="0.719727" y="0" width="30" height="30" filterUnits="userSpaceOnUse" color-interpolation-filters="sRGB">
<feFlood flood-opacity="0" result="BackgroundImageFix"/>
<feColorMatrix in="SourceAlpha" type="matrix" values="0 0 0 0 0 0 0 0 0 0 0 0 0 0 0 0 0 0 127 0" result="hardAlpha"/>
<feMorphology radius="1" operator="dilate" in="SourceAlpha" result="effect1_dropShadow_169_160"/>
<feOffset/>
<feComposite in2="hardAlpha" operator="out"/>
<feColorMatrix type="matrix" values="0 0 0 0 0.921569 0 0 0 0 0.921569 0 0 0 0 0.921569 0 0 0 1 0"/>
<feBlend mode="normal" in2="BackgroundImageFix" result="effect1_dropShadow_169_160"/>
<feColorMatrix in="SourceAlpha" type="matrix" values="0 0 0 0 0 0 0 0 0 0 0 0 0 0 0 0 0 0 127 0" result="hardAlpha"/>
<feOffset dy="1"/>
<feGaussianBlur stdDeviation="1.5"/>
<feComposite in2="hardAlpha" operator="out"/>
<feColorMatrix type="matrix" values="0 0 0 0 0.560784 0 0 0 0 0.560784 0 0 0 0 0.560784 0 0 0 0.2 0"/>
<feBlend mode="normal" in2="effect1_dropShadow_169_160" result="effect2_dropShadow_169_160"/>
<feBlend mode="normal" in="SourceGraphic" in2="effect2_dropShadow_169_160" result="shape"/>
<feColorMatrix in="SourceAlpha" type="matrix" values="0 0 0 0 0 0 0 0 0 0 0 0 0 0 0 0 0 0 127 0" result="hardAlpha"/>
<feOffset dy="-2.4"/>
<feComposite in2="hardAlpha" operator="arithmetic" k2="-1" k3="1"/>
<feColorMatrix type="matrix" values="0 0 0 0 0.243137 0 0 0 0 0.243137 0 0 0 0 0.243137 0 0 0 0.04 0"/>
<feBlend mode="normal" in2="shape" result="effect3_innerShadow_169_160"/>
</filter>
</defs>
</svg>
