<svg width="31" height="30" viewBox="0 0 31 30" fill="none" xmlns="http://www.w3.org/2000/svg">
<g filter="url(#filter0_ddi_169_146)">
<rect x="3.71973" y="2" width="24" height="24" rx="12" fill="white" fill-opacity="0.01" shape-rendering="crispEdges"/>
<path d="M13.7197 18.5H17.7197M15.7197 16.5V18.5M13.1197 16.5H18.3197C19.1597 16.5 19.5797 16.5 19.9007 16.3365C20.183 16.1927 20.4124 15.9632 20.5562 15.681C20.7197 15.36 20.7197 14.94 20.7197 14.1V11.9C20.7197 11.06 20.7197 10.64 20.5562 10.319C20.4124 10.0368 20.183 9.80731 19.9007 9.6635C19.5797 9.5 19.1597 9.5 18.3197 9.5H13.1197C12.2797 9.5 11.8597 9.5 11.5387 9.6635C11.2565 9.80731 11.027 10.0368 10.8832 10.319C10.7197 10.64 10.7197 11.06 10.7197 11.9V14.1C10.7197 14.94 10.7197 15.36 10.8832 15.681C11.027 15.9632 11.2565 16.1927 11.5387 16.3365C11.8597 16.5 12.2797 16.5 13.1197 16.5Z" stroke="#039855"/>
</g>
<defs>
<filter id="filter0_ddi_169_146" x="0.719727" y="0" width="30" height="30" filterUnits="userSpaceOnUse" color-interpolation-filters="sRGB">
<feFlood flood-opacity="0" result="BackgroundImageFix"/>
<feColorMatrix in="SourceAlpha" type="matrix" values="0 0 0 0 0 0 0 0 0 0 0 0 0 0 0 0 0 0 127 0" result="hardAlpha"/>
<feMorphology radius="1" operator="dilate" in="SourceAlpha" result="effect1_dropShadow_169_146"/>
<feOffset/>
<feComposite in2="hardAlpha" operator="out"/>
<feColorMatrix type="matrix" values="0 0 0 0 0.921569 0 0 0 0 0.921569 0 0 0 0 0.921569 0 0 0 1 0"/>
<feBlend mode="normal" in2="BackgroundImageFix" result="effect1_dropShadow_169_146"/>
<feColorMatrix in="SourceAlpha" type="matrix" values="0 0 0 0 0 0 0 0 0 0 0 0 0 0 0 0 0 0 127 0" result="hardAlpha"/>
<feOffset dy="1"/>
<feGaussianBlur stdDeviation="1.5"/>
<feComposite in2="hardAlpha" operator="out"/>
<feColorMatrix type="matrix" values="0 0 0 0 0.560784 0 0 0 0 0.560784 0 0 0 0 0.560784 0 0 0 0.2 0"/>
<feBlend mode="normal" in2="effect1_dropShadow_169_146" result="effect2_dropShadow_169_146"/>
<feBlend mode="normal" in="SourceGraphic" in2="effect2_dropShadow_169_146" result="shape"/>
<feColorMatrix in="SourceAlpha" type="matrix" values="0 0 0 0 0 0 0 0 0 0 0 0 0 0 0 0 0 0 127 0" result="hardAlpha"/>
<feOffset dy="-2.4"/>
<feComposite in2="hardAlpha" operator="arithmetic" k2="-1" k3="1"/>
<feColorMatrix type="matrix" values="0 0 0 0 0.243137 0 0 0 0 0.243137 0 0 0 0 0.243137 0 0 0 0.04 0"/>
<feBlend mode="normal" in2="shape" result="effect3_innerShadow_169_146"/>
</filter>
</defs>
</svg>
