<svg width="24" height="25" viewBox="0 0 24 25" fill="none" xmlns="http://www.w3.org/2000/svg">
<path d="M8 21.73H16M12 17.73V21.73M6.8 17.73H17.2C18.88 17.73 19.72 17.73 20.362 17.403C20.9265 17.1154 21.3854 16.6564 21.673 16.092C22 15.45 22 14.61 22 12.93V8.52998C22 6.84998 22 6.00998 21.673 5.36798C21.3854 4.80352 20.9265 4.3446 20.362 4.05698C19.72 3.72998 18.88 3.72998 17.2 3.72998H6.8C5.12 3.72998 4.28 3.72998 3.638 4.05698C3.07354 4.3446 2.61462 4.80352 2.327 5.36798C2 6.00998 2 6.84998 2 8.52998V12.93C2 14.61 2 15.45 2.327 16.092C2.61462 16.6564 3.07354 17.1154 3.638 17.403C4.28 17.73 5.12 17.73 6.8 17.73Z" stroke="#6941C6" stroke-width="2"/>
</svg>
