<svg width="24" height="25" viewBox="0 0 24 25" fill="none" xmlns="http://www.w3.org/2000/svg">
<path d="M13 7.72998L11.884 5.49898C11.564 4.85698 11.403 4.53598 11.164 4.30098C10.952 4.09341 10.6965 3.93559 10.416 3.83898C10.1 3.72998 9.74 3.72998 9.022 3.72998H5.2C4.08 3.72998 3.52 3.72998 3.092 3.94798C2.71569 4.13972 2.40974 4.44567 2.218 4.82198C2 5.24998 2 5.80998 2 6.92998V7.72998M2 7.72998H17.2C18.88 7.72998 19.72 7.72998 20.362 8.05698C20.9265 8.3446 21.3854 8.80352 21.673 9.36798C22 10.01 22 10.85 22 12.53V16.93C22 18.61 22 19.45 21.673 20.092C21.3854 20.6564 20.9265 21.1154 20.362 21.403C19.72 21.73 18.88 21.73 17.2 21.73H6.8C5.12 21.73 4.28 21.73 3.638 21.403C3.07354 21.1154 2.61462 20.6564 2.327 20.092C2 19.45 2 18.61 2 16.93V7.72998ZM14 17.23L16.5 14.73L14 12.23M10 12.23L7.5 14.73L10 17.23" stroke="#6941C6" stroke-width="2"/>
</svg>
