<svg width="40" height="40" viewBox="0 0 40 40" fill="none" xmlns="http://www.w3.org/2000/svg">
<rect x="0.357143" y="0.357143" width="39.2857" height="39.2857" rx="19.6429" stroke="white" stroke-opacity="0.1" stroke-width="0.714286"/>
<g clip-path="url(#clip0_66_2570)">
<path d="M20.0003 12.8571C21.941 12.8571 22.1831 12.8643 22.9446 12.9C23.7053 12.9357 24.2231 13.055 24.6789 13.2321C25.1503 13.4136 25.5474 13.6593 25.9446 14.0557C26.3078 14.4128 26.5888 14.8447 26.7681 15.3214C26.9446 15.7764 27.0646 16.295 27.1003 17.0557C27.1339 17.8171 27.1431 18.0593 27.1431 20C27.1431 21.9407 27.136 22.1829 27.1003 22.9443C27.0646 23.705 26.9446 24.2229 26.7681 24.6786C26.5893 25.1556 26.3082 25.5876 25.9446 25.9443C25.5874 26.3074 25.1555 26.5884 24.6789 26.7679C24.2239 26.9443 23.7053 27.0643 22.9446 27.1C22.1831 27.1336 21.941 27.1429 20.0003 27.1429C18.0596 27.1429 17.8174 27.1357 17.056 27.1C16.2953 27.0643 15.7774 26.9443 15.3217 26.7679C14.8448 26.5889 14.4128 26.3078 14.056 25.9443C13.6927 25.5873 13.4117 25.1553 13.2324 24.6786C13.0553 24.2236 12.936 23.705 12.9003 22.9443C12.8667 22.1829 12.8574 21.9407 12.8574 20C12.8574 18.0593 12.8646 17.8171 12.9003 17.0557C12.936 16.2943 13.0553 15.7771 13.2324 15.3214C13.4112 14.8444 13.6923 14.4124 14.056 14.0557C14.4129 13.6923 14.8449 13.4112 15.3217 13.2321C15.7774 13.055 16.2946 12.9357 17.056 12.9C17.8174 12.8664 18.0596 12.8571 20.0003 12.8571ZM20.0003 16.4286C19.0531 16.4286 18.1447 16.8049 17.4749 17.4746C16.8051 18.1444 16.4289 19.0528 16.4289 20C16.4289 20.9472 16.8051 21.8556 17.4749 22.5254C18.1447 23.1952 19.0531 23.5714 20.0003 23.5714C20.9475 23.5714 21.8559 23.1952 22.5257 22.5254C23.1954 21.8556 23.5717 20.9472 23.5717 20C23.5717 19.0528 23.1954 18.1444 22.5257 17.4746C21.8559 16.8049 20.9475 16.4286 20.0003 16.4286ZM24.6431 16.25C24.6431 16.0132 24.5491 15.7861 24.3816 15.6187C24.2142 15.4512 23.9871 15.3571 23.7503 15.3571C23.5135 15.3571 23.2864 15.4512 23.1189 15.6187C22.9515 15.7861 22.8574 16.0132 22.8574 16.25C22.8574 16.4868 22.9515 16.7139 23.1189 16.8813C23.2864 17.0488 23.5135 17.1429 23.7503 17.1429C23.9871 17.1429 24.2142 17.0488 24.3816 16.8813C24.5491 16.7139 24.6431 16.4868 24.6431 16.25ZM20.0003 17.8571C20.5686 17.8571 21.1136 18.0829 21.5155 18.4848C21.9174 18.8866 22.1431 19.4317 22.1431 20C22.1431 20.5683 21.9174 21.1134 21.5155 21.5152C21.1136 21.9171 20.5686 22.1429 20.0003 22.1429C19.432 22.1429 18.8869 21.9171 18.4851 21.5152C18.0832 21.1134 17.8574 20.5683 17.8574 20C17.8574 19.4317 18.0832 18.8866 18.4851 18.4848C18.8869 18.0829 19.432 17.8571 20.0003 17.8571Z" fill="white"/>
</g>
<defs>
<clipPath id="clip0_66_2570">
<rect width="17.1429" height="17.1429" fill="white" transform="translate(11.4287 11.4286)"/>
</clipPath>
</defs>
</svg>
