<svg width="18" height="18" viewBox="0 0 18 18" fill="none" xmlns="http://www.w3.org/2000/svg">
<g clip-path="url(#clip0_66_2523)">
<path d="M8.57132 1.42859C10.512 1.42859 10.7542 1.43573 11.5156 1.47145C12.2763 1.50716 12.7942 1.62645 13.2499 1.80359C13.7213 1.98502 14.1185 2.23073 14.5156 2.62716C14.8788 2.98423 15.1599 3.41615 15.3392 3.89287C15.5156 4.34787 15.6356 4.86645 15.6713 5.62716C15.7049 6.38859 15.7142 6.63073 15.7142 8.57145C15.7142 10.5122 15.707 10.7543 15.6713 11.5157C15.6356 12.2764 15.5156 12.7943 15.3392 13.25C15.1604 13.727 14.8793 14.159 14.5156 14.5157C14.1584 14.8788 13.7265 15.1598 13.2499 15.3393C12.7949 15.5157 12.2763 15.6357 11.5156 15.6714C10.7542 15.705 10.512 15.7143 8.57132 15.7143C6.63061 15.7143 6.38847 15.7072 5.62704 15.6714C4.86632 15.6357 4.34847 15.5157 3.89275 15.3393C3.41584 15.1604 2.98384 14.8793 2.62704 14.5157C2.26376 14.1587 1.9827 13.7268 1.80347 13.25C1.62632 12.795 1.50704 12.2764 1.47132 11.5157C1.43775 10.7543 1.42847 10.5122 1.42847 8.57145C1.42847 6.63073 1.43561 6.38859 1.47132 5.62716C1.50704 4.86573 1.62632 4.34859 1.80347 3.89287C1.98221 3.41586 2.26333 2.98382 2.62704 2.62716C2.98395 2.26375 3.41592 1.98268 3.89275 1.80359C4.34847 1.62645 4.86561 1.50716 5.62704 1.47145C6.38847 1.43787 6.63061 1.42859 8.57132 1.42859ZM8.57132 5.00002C7.62412 5.00002 6.71572 5.37629 6.04594 6.04606C5.37617 6.71584 4.9999 7.62424 4.9999 8.57145C4.9999 9.51865 5.37617 10.4271 6.04594 11.0968C6.71572 11.7666 7.62412 12.1429 8.57132 12.1429C9.51853 12.1429 10.4269 11.7666 11.0967 11.0968C11.7665 10.4271 12.1428 9.51865 12.1428 8.57145C12.1428 7.62424 11.7665 6.71584 11.0967 6.04606C10.4269 5.37629 9.51853 5.00002 8.57132 5.00002ZM13.2142 4.82145C13.2142 4.58465 13.1201 4.35754 12.9527 4.1901C12.7852 4.02266 12.5581 3.92859 12.3213 3.92859C12.0845 3.92859 11.8574 4.02266 11.69 4.1901C11.5225 4.35754 11.4285 4.58465 11.4285 4.82145C11.4285 5.05825 11.5225 5.28535 11.69 5.45279C11.8574 5.62023 12.0845 5.7143 12.3213 5.7143C12.5581 5.7143 12.7852 5.62023 12.9527 5.45279C13.1201 5.28535 13.2142 5.05825 13.2142 4.82145ZM8.57132 6.42859C9.13965 6.42859 9.68469 6.65435 10.0866 7.05622C10.4884 7.45808 10.7142 8.00313 10.7142 8.57145C10.7142 9.13977 10.4884 9.68481 10.0866 10.0867C9.68469 10.4885 9.13965 10.7143 8.57132 10.7143C8.003 10.7143 7.45796 10.4885 7.0561 10.0867C6.65423 9.68481 6.42847 9.13977 6.42847 8.57145C6.42847 8.00313 6.65423 7.45808 7.0561 7.05622C7.45796 6.65435 8.003 6.42859 8.57132 6.42859Z" fill="white"/>
</g>
<defs>
<clipPath id="clip0_66_2523">
<rect width="17.1429" height="17.1429" fill="white"/>
</clipPath>
</defs>
</svg>
