<svg width="40" height="40" viewBox="0 0 40 40" fill="none" xmlns="http://www.w3.org/2000/svg">
<rect x="0.357143" y="0.357143" width="39.2857" height="39.2857" rx="19.6429" stroke="#1C1C1C" stroke-opacity="0.1" stroke-width="0.714286"/>
<g clip-path="url(#clip0_60_678)">
<path d="M19.9998 12.8569C21.9405 12.8569 22.1826 12.8641 22.9441 12.8998C23.7048 12.9355 24.2226 13.0548 24.6784 13.2319C25.1498 13.4134 25.5469 13.6591 25.9441 14.0555C26.3073 14.4126 26.5883 14.8445 26.7676 15.3212C26.9441 15.7762 27.0641 16.2948 27.0998 17.0555C27.1334 17.8169 27.1426 18.0591 27.1426 19.9998C27.1426 21.9405 27.1355 22.1826 27.0998 22.9441C27.0641 23.7048 26.9441 24.2226 26.7676 24.6784C26.5888 25.1553 26.3077 25.5874 25.9441 25.9441C25.5869 26.3072 25.155 26.5882 24.6784 26.7676C24.2234 26.9441 23.7048 27.0641 22.9441 27.0998C22.1826 27.1334 21.9405 27.1426 19.9998 27.1426C18.0591 27.1426 17.8169 27.1355 17.0555 27.0998C16.2948 27.0641 15.7769 26.9441 15.3212 26.7676C14.8443 26.5887 14.4123 26.3076 14.0555 25.9441C13.6922 25.5871 13.4112 25.1551 13.2319 24.6784C13.0548 24.2234 12.9355 23.7048 12.8998 22.9441C12.8662 22.1826 12.8569 21.9405 12.8569 19.9998C12.8569 18.0591 12.8641 17.8169 12.8998 17.0555C12.9355 16.2941 13.0548 15.7769 13.2319 15.3212C13.4107 14.8442 13.6918 14.4122 14.0555 14.0555C14.4124 13.6921 14.8444 13.411 15.3212 13.2319C15.7769 13.0548 16.2941 12.9355 17.0555 12.8998C17.8169 12.8662 18.0591 12.8569 19.9998 12.8569ZM19.9998 16.4284C19.0526 16.4284 18.1442 16.8046 17.4744 17.4744C16.8046 18.1442 16.4284 19.0526 16.4284 19.9998C16.4284 20.947 16.8046 21.8554 17.4744 22.5252C18.1442 23.1949 19.0526 23.5712 19.9998 23.5712C20.947 23.5712 21.8554 23.1949 22.5252 22.5252C23.1949 21.8554 23.5712 20.947 23.5712 19.9998C23.5712 19.0526 23.1949 18.1442 22.5252 17.4744C21.8554 16.8046 20.947 16.4284 19.9998 16.4284ZM24.6426 16.2498C24.6426 16.013 24.5486 15.7859 24.3811 15.6184C24.2137 15.451 23.9866 15.3569 23.7498 15.3569C23.513 15.3569 23.2859 15.451 23.1184 15.6184C22.951 15.7859 22.8569 16.013 22.8569 16.2498C22.8569 16.4866 22.951 16.7137 23.1184 16.8811C23.2859 17.0486 23.513 17.1426 23.7498 17.1426C23.9866 17.1426 24.2137 17.0486 24.3811 16.8811C24.5486 16.7137 24.6426 16.4866 24.6426 16.2498ZM19.9998 17.8569C20.5681 17.8569 21.1132 18.0827 21.515 18.4846C21.9169 18.8864 22.1426 19.4315 22.1426 19.9998C22.1426 20.5681 21.9169 21.1132 21.515 21.515C21.1132 21.9169 20.5681 22.1426 19.9998 22.1426C19.4315 22.1426 18.8864 21.9169 18.4846 21.515C18.0827 21.1132 17.8569 20.5681 17.8569 19.9998C17.8569 19.4315 18.0827 18.8864 18.4846 18.4846C18.8864 18.0827 19.4315 17.8569 19.9998 17.8569Z" fill="#1C1C1C"/>
</g>
<defs>
<clipPath id="clip0_60_678">
<rect width="17.1429" height="17.1429" fill="white" transform="translate(11.4285 11.4285)"/>
</clipPath>
</defs>
</svg>
