<svg width="26" height="24" viewBox="0 0 26 24" fill="none" xmlns="http://www.w3.org/2000/svg">
<path d="M14.0904 10.9999L4.5904 20.4999M15.1074 3.5379C16.3605 4.3713 17.5273 5.3277 18.5904 6.3929C19.6646 7.46507 20.6281 8.64267 21.4664 9.9079M10.3444 7.8959L7.4704 6.9379C7.30751 6.88344 7.13334 6.87185 6.96467 6.90425C6.796 6.93666 6.63852 7.01196 6.5074 7.1229L3.6504 9.5409C3.5171 9.65385 3.41572 9.79976 3.35635 9.9641C3.29699 10.1284 3.28173 10.3054 3.31207 10.4775C3.34242 10.6496 3.41732 10.8107 3.52932 10.9448C3.64132 11.0789 3.7865 11.1814 3.9504 11.2419L6.6584 12.2399M12.7704 18.3519L13.7684 21.0599C13.8289 21.224 13.9313 21.3694 14.0655 21.4816C14.1997 21.5937 14.3609 21.6687 14.5332 21.6991C14.7054 21.7294 14.8826 21.7141 15.0471 21.6546C15.2115 21.5951 15.3575 21.4934 15.4704 21.3599L17.8874 18.5029C17.9983 18.372 18.0737 18.2147 18.1063 18.0462C18.1389 17.8778 18.1275 17.7037 18.0734 17.5409L17.1144 14.6659M20.4384 2.2699L15.5314 3.0869C15.0019 3.17539 14.5162 3.4358 14.1494 3.8279L7.5364 10.8999C6.7104 11.7811 6.25951 12.949 6.27908 14.1567C6.29865 15.3643 6.78714 16.517 7.64126 17.371C8.49538 18.225 9.64815 18.7133 10.8558 18.7327C12.0635 18.7521 13.2313 18.301 14.1124 17.4749L21.1814 10.8619C21.5734 10.4949 21.8334 10.0089 21.9214 9.4799L22.7404 4.5729C22.7927 4.25888 22.7692 3.93693 22.672 3.63381C22.5747 3.33069 22.4066 3.05515 22.1814 2.83011C21.9563 2.60506 21.6807 2.43701 21.3775 2.33992C21.0744 2.24283 20.7524 2.21951 20.4384 2.2719V2.2699Z" stroke="#3686FD" stroke-width="1.66" stroke-linecap="round" stroke-linejoin="round"/>
</svg>
