<svg width="40" height="40" viewBox="0 0 40 40" fill="none" xmlns="http://www.w3.org/2000/svg">
<rect x="0.357143" y="0.357143" width="39.2857" height="39.2857" rx="19.6429" stroke="white" stroke-opacity="0.1" stroke-width="0.714286"/>
<g clip-path="url(#clip0_66_2572)">
<path d="M24.8445 27.0156H15.2485C13.9815 27.0156 12.9507 25.987 12.9507 24.7225V15.1507C12.9507 13.8863 13.9815 12.8577 15.2485 12.8577H24.8445C26.1111 12.8577 27.1419 13.8863 27.1419 15.1507V24.7229C27.1419 25.9874 26.1111 27.0156 24.8445 27.0156ZM17.7459 24.5621H17.7489V18.4551H15.8489V24.5621H17.7456H17.7459ZM16.7976 17.6211C16.942 17.6213 17.0851 17.5929 17.2186 17.5378C17.3521 17.4826 17.4734 17.4016 17.5756 17.2994C17.6777 17.1973 17.7587 17.076 17.8139 16.9425C17.8691 16.809 17.8974 16.6659 17.8972 16.5214C17.8966 16.23 17.7806 15.9506 17.5745 15.7445C17.3684 15.5384 17.089 15.4224 16.7976 15.4218C16.506 15.4219 16.2263 15.5378 16.0201 15.744C15.8139 15.9502 15.698 16.2298 15.6979 16.5214C15.698 16.813 15.8139 17.0927 16.0201 17.2989C16.2263 17.5051 16.506 17.621 16.7976 17.6211ZM24.8554 24.5625V21.2145C24.8554 19.5694 24.4983 18.3039 22.5789 18.3039C21.6562 18.3039 21.0368 18.8093 20.7822 19.2892H20.7565V18.4551H18.9371V24.5621H20.8338V21.5401C20.8338 20.743 20.9851 19.972 21.973 19.972C22.9445 19.972 22.9587 20.8833 22.9587 21.5914V24.5621H24.8554V24.5625Z" fill="white"/>
</g>
<defs>
<clipPath id="clip0_66_2572">
<rect width="14.2857" height="14.2857" fill="white" transform="translate(12.8569 12.858)"/>
</clipPath>
</defs>
</svg>
