<svg width="15" height="15" viewBox="0 0 15 15" fill="none" xmlns="http://www.w3.org/2000/svg">
<g clip-path="url(#clip0_66_2526)">
<path d="M11.9878 14.1576H2.3918C1.12476 14.1576 0.0939941 13.129 0.0939941 11.8645V2.29274C0.0939941 1.02827 1.12476 -0.000305176 2.3918 -0.000305176H11.9878C13.2544 -0.000305176 14.2852 1.02827 14.2852 2.29274V11.8649C14.2852 13.1294 13.2544 14.1576 11.9878 14.1576ZM4.88923 11.7041H4.89216V5.59713H2.99216V11.7041H4.88887H4.88923ZM3.94088 4.76307C4.08534 4.76326 4.22842 4.73495 4.36192 4.67975C4.49542 4.62456 4.61672 4.54357 4.71887 4.44142C4.82102 4.33927 4.90201 4.21797 4.9572 4.08447C5.0124 3.95097 5.04071 3.80789 5.04051 3.66343C5.03993 3.37197 4.92389 3.09261 4.7178 2.88651C4.5117 2.68042 4.23234 2.56438 3.94088 2.5638C3.64927 2.56389 3.36963 2.67978 3.16343 2.88598C2.95723 3.09218 2.84134 3.37182 2.84125 3.66343C2.84134 3.95504 2.95723 4.23468 3.16343 4.44088C3.36963 4.64708 3.64927 4.76297 3.94088 4.76307ZM11.9988 11.7045V8.35647C11.9988 6.71142 11.6416 5.44585 9.7222 5.44585C8.79949 5.44585 8.18007 5.95134 7.9255 6.4312H7.89986V5.59713H6.08044V11.7041H7.97714V8.68211C7.97714 7.88504 8.12843 7.11398 9.11634 7.11398C10.0878 7.11398 10.1021 8.02534 10.1021 8.7334V11.7041H11.9988V11.7045Z" fill="white"/>
</g>
<defs>
<clipPath id="clip0_66_2526">
<rect width="14.2857" height="14.2857" fill="white"/>
</clipPath>
</defs>
</svg>
