<svg width="40" height="40" viewBox="0 0 40 40" fill="none" xmlns="http://www.w3.org/2000/svg">
<rect x="0.357143" y="0.357143" width="39.2857" height="39.2857" rx="19.6429" stroke="#1C1C1C" stroke-opacity="0.1" stroke-width="0.714286"/>
<g clip-path="url(#clip0_60_680)">
<path d="M24.8447 27.0155H15.2487C13.9817 27.0155 12.9509 25.987 12.9509 24.7225V15.1507C12.9509 13.8862 13.9817 12.8577 15.2487 12.8577H24.8447C26.1114 12.8577 27.1421 13.8862 27.1421 15.1507V24.7229C27.1421 25.9873 26.1114 27.0155 24.8447 27.0155ZM17.7462 24.5621H17.7491V18.4551H15.8491V24.5621H17.7458H17.7462ZM16.7978 17.621C16.9423 17.6212 17.0854 17.5929 17.2189 17.5377C17.3524 17.4825 17.4737 17.4015 17.5758 17.2994C17.678 17.1972 17.7589 17.0759 17.8141 16.9424C17.8693 16.8089 17.8976 16.6659 17.8974 16.5214C17.8969 16.2299 17.7808 15.9506 17.5747 15.7445C17.3686 15.5384 17.0893 15.4223 16.7978 15.4218C16.5062 15.4219 16.2266 15.5378 16.0204 15.744C15.8142 15.9502 15.6983 16.2298 15.6982 16.5214C15.6983 16.813 15.8142 17.0927 16.0204 17.2989C16.2266 17.5051 16.5062 17.6209 16.7978 17.621ZM24.8557 24.5624V21.2144C24.8557 19.5694 24.4985 18.3038 22.5791 18.3038C21.6564 18.3038 21.037 18.8093 20.7824 19.2892H20.7568V18.4551H18.9374V24.5621H20.8341V21.5401C20.8341 20.743 20.9854 19.972 21.9733 19.972C22.9447 19.972 22.959 20.8833 22.959 21.5914V24.5621H24.8557V24.5624Z" fill="#1C1C1C"/>
</g>
<defs>
<clipPath id="clip0_60_680">
<rect width="14.2857" height="14.2857" fill="white" transform="translate(12.8569 12.8579)"/>
</clipPath>
</defs>
</svg>
