<svg width="25" height="24" viewBox="0 0 25 24" fill="none" xmlns="http://www.w3.org/2000/svg">
<path d="M22.7598 8.931C22.7598 8.326 22.7598 8.023 22.6398 7.882C22.5884 7.82205 22.5235 7.77512 22.4505 7.74505C22.3775 7.71498 22.2985 7.70263 22.2198 7.709C22.0368 7.723 21.8228 7.937 21.3938 8.366L17.7598 12L21.3938 15.634C21.8228 16.063 22.0368 16.277 22.2208 16.291C22.2993 16.2972 22.3782 16.2848 22.451 16.2547C22.5238 16.2246 22.5885 16.1778 22.6398 16.118C22.7598 15.978 22.7598 15.674 22.7598 15.068V8.932V8.931ZM2.75977 9.8C2.75977 8.12 2.75977 7.28 3.08677 6.638C3.37412 6.07369 3.83268 5.61479 4.39677 5.327C5.03977 5 5.87977 5 7.55977 5H12.9598C14.6398 5 15.4798 5 16.1218 5.327C16.6859 5.61479 17.1444 6.07369 17.4318 6.638C17.7598 7.28 17.7598 8.12 17.7598 9.8V14.2C17.7598 15.88 17.7598 16.72 17.4328 17.362C17.1452 17.9265 16.6862 18.3854 16.1218 18.673C15.4798 19 14.6398 19 12.9598 19H7.55977C5.87977 19 5.03977 19 4.39777 18.673C3.8333 18.3854 3.37438 17.9265 3.08677 17.362C2.75977 16.72 2.75977 15.88 2.75977 14.2V9.8Z" stroke="#3686FD" stroke-width="1.66" stroke-linecap="round" stroke-linejoin="round"/>
</svg>
