<svg width="24" height="25" viewBox="0 0 24 25" fill="none" xmlns="http://www.w3.org/2000/svg">
<path d="M12 16.23V21.23M18 21.23L14.049 17.937C13.319 17.33 12.955 17.027 12.549 16.91C12.1902 16.8075 11.8098 16.8075 11.451 16.91C11.045 17.026 10.681 17.33 9.951 17.937L6 21.23M8 11.23V12.23M12 9.22998V12.23M16 7.22998V12.23M22 3.22998H2M3 3.22998H21V11.43C21 13.11 21 13.95 20.673 14.592C20.3854 15.1564 19.9265 15.6154 19.362 15.903C18.72 16.23 17.88 16.23 16.2 16.23H7.8C6.12 16.23 5.28 16.23 4.638 15.903C4.07354 15.6154 3.61462 15.1564 3.327 14.592C3 13.95 3 13.11 3 11.43V3.22998Z" stroke="#EC4A0B" stroke-width="2"/>
</svg>
