<svg width="17" height="17" viewBox="0 0 17 17" fill="none" xmlns="http://www.w3.org/2000/svg">
<path d="M14.75 8.72998C14.75 8.92889 14.671 9.11966 14.5303 9.26031C14.3897 9.40096 14.1989 9.47998 14 9.47998H9.25V14.23C9.25 14.4289 9.17098 14.6197 9.03033 14.7603C8.88968 14.901 8.69891 14.98 8.5 14.98C8.30109 14.98 8.11032 14.901 7.96967 14.7603C7.82902 14.6197 7.75 14.4289 7.75 14.23V9.47998H3C2.80109 9.47998 2.61032 9.40096 2.46967 9.26031C2.32902 9.11966 2.25 8.92889 2.25 8.72998C2.25 8.53107 2.32902 8.3403 2.46967 8.19965C2.61032 8.059 2.80109 7.97998 3 7.97998H7.75V3.22998C7.75 3.03107 7.82902 2.8403 7.96967 2.69965C8.11032 2.559 8.30109 2.47998 8.5 2.47998C8.69891 2.47998 8.88968 2.559 9.03033 2.69965C9.17098 2.8403 9.25 3.03107 9.25 3.22998V7.97998H14C14.1989 7.97998 14.3897 8.059 14.5303 8.19965C14.671 8.3403 14.75 8.53107 14.75 8.72998Z" fill="#8F8F8F"/>
</svg>
