<svg width="25" height="25" viewBox="0 0 25 25" fill="none" xmlns="http://www.w3.org/2000/svg">
<path d="M22.0228 16.8849C22.1219 17.0568 22.1488 17.261 22.0976 17.4527C22.0465 17.6444 21.9215 17.808 21.75 17.9077L12.75 23.1577C12.6353 23.2246 12.5049 23.2599 12.3722 23.2599C12.2394 23.2599 12.1091 23.2246 11.9944 23.1577L2.99438 17.9077C2.82534 17.8062 2.70311 17.6421 2.65416 17.4511C2.6052 17.26 2.63346 17.0574 2.73281 16.887C2.83217 16.7167 2.99462 16.5923 3.185 16.5409C3.37537 16.4894 3.57836 16.515 3.75 16.6121L12.375 21.6418L21 16.6121C21.1719 16.5131 21.3761 16.4862 21.5677 16.5373C21.7594 16.5884 21.9231 16.7134 22.0228 16.8849ZM21 12.1121L12.375 17.1418L3.75 12.1121C3.57923 12.0271 3.38248 12.0103 3.19979 12.0653C3.0171 12.1202 2.8622 12.2427 2.76663 12.4078C2.67106 12.5729 2.64199 12.7682 2.68535 12.954C2.7287 13.1397 2.84122 13.302 3 13.4077L12 18.6577C12.1147 18.7246 12.2451 18.7599 12.3778 18.7599C12.5106 18.7599 12.6409 18.7246 12.7556 18.6577L21.7556 13.4077C21.8421 13.3588 21.9179 13.2933 21.9788 13.2148C22.0397 13.1363 22.0844 13.0465 22.1103 12.9507C22.1362 12.8548 22.1429 12.7547 22.1298 12.6563C22.1167 12.5578 22.0842 12.4629 22.0342 12.3771C21.9841 12.2913 21.9176 12.2163 21.8383 12.1565C21.759 12.0966 21.6687 12.0531 21.5725 12.0285C21.4763 12.0038 21.3761 11.9985 21.2778 12.0129C21.1796 12.0272 21.0851 12.061 21 12.1121ZM2.625 8.25994C2.6253 8.12857 2.6601 7.99959 2.72591 7.8859C2.79172 7.77221 2.88624 7.6778 3 7.61212L12 2.36212C12.1147 2.29525 12.2451 2.26001 12.3778 2.26001C12.5106 2.26001 12.6409 2.29525 12.7556 2.36212L21.7556 7.61212C21.8688 7.67817 21.9628 7.77275 22.0281 7.88641C22.0933 8.00007 22.1277 8.12886 22.1277 8.25994C22.1277 8.39101 22.0933 8.5198 22.0281 8.63346C21.9628 8.74713 21.8688 8.8417 21.7556 8.90775L12.7556 14.1577C12.6409 14.2246 12.5106 14.2599 12.3778 14.2599C12.2451 14.2599 12.1147 14.2246 12 14.1577L3 8.90775C2.88624 8.84207 2.79172 8.74766 2.72591 8.63397C2.6601 8.52028 2.6253 8.3913 2.625 8.25994ZM4.86375 8.25994L12.375 12.6418L19.8862 8.25994L12.375 3.87806L4.86375 8.25994Z" fill="#1C1C1C"/>
</svg>
