<svg width="24" height="25" viewBox="0 0 24 25" fill="none" xmlns="http://www.w3.org/2000/svg">
<path d="M16 21.48V20.28C16 18.6 16 17.76 15.673 17.118C15.3854 16.5535 14.9265 16.0946 14.362 15.807C13.72 15.48 12.88 15.48 11.2 15.48H6.8C5.12 15.48 4.28 15.48 3.638 15.807C3.07354 16.0946 2.61462 16.5535 2.327 17.118C2 17.76 2 18.6 2 20.28V21.48M16 6.47998L18 8.47998L22 4.47998M12.5 7.97998C12.5 8.43961 12.4095 8.89473 12.2336 9.31937C12.0577 9.74401 11.7999 10.1298 11.4749 10.4549C11.1499 10.7799 10.764 11.0377 10.3394 11.2136C9.91475 11.3895 9.45963 11.48 9 11.48C8.54037 11.48 8.08525 11.3895 7.66061 11.2136C7.23597 11.0377 6.85013 10.7799 6.52513 10.4549C6.20012 10.1298 5.94231 9.74401 5.76642 9.31937C5.59053 8.89473 5.5 8.43961 5.5 7.97998C5.5 7.05172 5.86875 6.16148 6.52513 5.50511C7.1815 4.84873 8.07174 4.47998 9 4.47998C9.92826 4.47998 10.8185 4.84873 11.4749 5.50511C12.1313 6.16148 12.5 7.05172 12.5 7.97998Z" stroke="#007AFF" stroke-width="2"/>
</svg>
