<svg width="24" height="25" viewBox="0 0 24 25" fill="none" xmlns="http://www.w3.org/2000/svg">
<path d="M20.5 7.75802L12 12.48M12 12.48L3.5 7.75802M12 12.48V21.98M21 16.539V8.42202C21 8.07902 21 7.90802 20.95 7.75502C20.9051 7.61975 20.8318 7.49565 20.735 7.39102C20.626 7.27202 20.477 7.18902 20.177 7.02302L12.777 2.91202C12.493 2.75402 12.352 2.67502 12.202 2.64502C12.0691 2.61767 11.9319 2.61767 11.799 2.64502C11.649 2.67502 11.507 2.75502 11.223 2.91202L3.823 7.02202C3.523 7.18902 3.373 7.27202 3.265 7.39102C3.16821 7.49565 3.09491 7.61975 3.05 7.75502C3 7.90802 3 8.07902 3 8.42202V16.539C3 16.881 3 17.053 3.05 17.205C3.09491 17.3403 3.16821 17.4644 3.265 17.569C3.374 17.688 3.523 17.771 3.823 17.937L11.223 22.048C11.507 22.206 11.648 22.285 11.799 22.316C11.932 22.343 12.069 22.343 12.201 22.316C12.351 22.285 12.493 22.206 12.777 22.048L20.177 17.938C20.477 17.771 20.627 17.688 20.735 17.569C20.8318 17.4644 20.9051 17.3403 20.95 17.205C21 17.053 21 16.881 21 16.539Z" stroke="#007AFF" stroke-width="2"/>
</svg>
