<svg width="31" height="30" viewBox="0 0 31 30" fill="none" xmlns="http://www.w3.org/2000/svg">
<g filter="url(#filter0_ddi_169_174)">
<rect x="3.71973" y="2" width="24" height="24" rx="12" fill="white" fill-opacity="0.01" shape-rendering="crispEdges"/>
<path d="M14.7197 11.5H11.2197M20.2197 11.5H16.7197M16.7197 11.626C18.4447 12.07 19.7197 13.636 19.7197 15.5M11.7197 15.5C11.7197 13.636 12.9947 12.07 14.7197 11.626M11.5197 17.5H11.9197C12.1997 17.5 12.3397 17.5 12.4467 17.4455C12.5408 17.3976 12.6173 17.3211 12.6652 17.227C12.7197 17.12 12.7197 16.98 12.7197 16.7V16.3C12.7197 16.02 12.7197 15.88 12.6652 15.773C12.6173 15.6789 12.5408 15.6024 12.4467 15.5545C12.3397 15.5 12.1997 15.5 11.9197 15.5H11.5197C11.2397 15.5 11.0997 15.5 10.9927 15.5545C10.8986 15.6024 10.8222 15.6789 10.7742 15.773C10.7197 15.88 10.7197 16.02 10.7197 16.3V16.7C10.7197 16.98 10.7197 17.12 10.7742 17.227C10.8222 17.3211 10.8986 17.3976 10.9927 17.4455C11.0997 17.5 11.2397 17.5 11.5197 17.5ZM15.5197 12.5H15.9197C16.1997 12.5 16.3397 12.5 16.4467 12.4455C16.5408 12.3976 16.6173 12.3211 16.6652 12.227C16.7197 12.12 16.7197 11.98 16.7197 11.7V11.3C16.7197 11.02 16.7197 10.88 16.6652 10.773C16.6173 10.6789 16.5408 10.6024 16.4467 10.5545C16.3397 10.5 16.1997 10.5 15.9197 10.5H15.5197C15.2397 10.5 15.0997 10.5 14.9927 10.5545C14.8986 10.6024 14.8222 10.6789 14.7742 10.773C14.7197 10.88 14.7197 11.02 14.7197 11.3V11.7C14.7197 11.98 14.7197 12.12 14.7742 12.227C14.8222 12.3211 14.8986 12.3976 14.9927 12.4455C15.0997 12.5 15.2397 12.5 15.5197 12.5ZM19.5197 17.5H19.9197C20.1997 17.5 20.3397 17.5 20.4467 17.4455C20.5408 17.3976 20.6173 17.3211 20.6652 17.227C20.7197 17.12 20.7197 16.98 20.7197 16.7V16.3C20.7197 16.02 20.7197 15.88 20.6652 15.773C20.6173 15.6789 20.5408 15.6024 20.4467 15.5545C20.3397 15.5 20.1997 15.5 19.9197 15.5H19.5197C19.2397 15.5 19.0997 15.5 18.9927 15.5545C18.8986 15.6024 18.8222 15.6789 18.7742 15.773C18.7197 15.88 18.7197 16.02 18.7197 16.3V16.7C18.7197 16.98 18.7197 17.12 18.7742 17.227C18.8222 17.3211 18.8986 17.3976 18.9927 17.4455C19.0997 17.5 19.2397 17.5 19.5197 17.5ZM20.7197 11.5C20.7197 11.6326 20.667 11.7598 20.5733 11.8536C20.4795 11.9473 20.3523 12 20.2197 12C20.0871 12 19.9599 11.9473 19.8662 11.8536C19.7724 11.7598 19.7197 11.6326 19.7197 11.5C19.7197 11.3674 19.7724 11.2402 19.8662 11.1464C19.9599 11.0527 20.0871 11 20.2197 11C20.3523 11 20.4795 11.0527 20.5733 11.1464C20.667 11.2402 20.7197 11.3674 20.7197 11.5ZM11.7197 11.5C11.7197 11.6326 11.667 11.7598 11.5733 11.8536C11.4795 11.9473 11.3523 12 11.2197 12C11.0871 12 10.9599 11.9473 10.8662 11.8536C10.7724 11.7598 10.7197 11.6326 10.7197 11.5C10.7197 11.3674 10.7724 11.2402 10.8662 11.1464C10.9599 11.0527 11.0871 11 11.2197 11C11.3523 11 11.4795 11.0527 11.5733 11.1464C11.667 11.2402 11.7197 11.3674 11.7197 11.5Z" stroke="#FB6514"/>
</g>
<defs>
<filter id="filter0_ddi_169_174" x="0.719727" y="0" width="30" height="30" filterUnits="userSpaceOnUse" color-interpolation-filters="sRGB">
<feFlood flood-opacity="0" result="BackgroundImageFix"/>
<feColorMatrix in="SourceAlpha" type="matrix" values="0 0 0 0 0 0 0 0 0 0 0 0 0 0 0 0 0 0 127 0" result="hardAlpha"/>
<feMorphology radius="1" operator="dilate" in="SourceAlpha" result="effect1_dropShadow_169_174"/>
<feOffset/>
<feComposite in2="hardAlpha" operator="out"/>
<feColorMatrix type="matrix" values="0 0 0 0 0.921569 0 0 0 0 0.921569 0 0 0 0 0.921569 0 0 0 1 0"/>
<feBlend mode="normal" in2="BackgroundImageFix" result="effect1_dropShadow_169_174"/>
<feColorMatrix in="SourceAlpha" type="matrix" values="0 0 0 0 0 0 0 0 0 0 0 0 0 0 0 0 0 0 127 0" result="hardAlpha"/>
<feOffset dy="1"/>
<feGaussianBlur stdDeviation="1.5"/>
<feComposite in2="hardAlpha" operator="out"/>
<feColorMatrix type="matrix" values="0 0 0 0 0.560784 0 0 0 0 0.560784 0 0 0 0 0.560784 0 0 0 0.2 0"/>
<feBlend mode="normal" in2="effect1_dropShadow_169_174" result="effect2_dropShadow_169_174"/>
<feBlend mode="normal" in="SourceGraphic" in2="effect2_dropShadow_169_174" result="shape"/>
<feColorMatrix in="SourceAlpha" type="matrix" values="0 0 0 0 0 0 0 0 0 0 0 0 0 0 0 0 0 0 127 0" result="hardAlpha"/>
<feOffset dy="-2.4"/>
<feComposite in2="hardAlpha" operator="arithmetic" k2="-1" k3="1"/>
<feColorMatrix type="matrix" values="0 0 0 0 0.243137 0 0 0 0 0.243137 0 0 0 0 0.243137 0 0 0 0.04 0"/>
<feBlend mode="normal" in2="shape" result="effect3_innerShadow_169_174"/>
</filter>
</defs>
</svg>
