<svg width="19" height="19" viewBox="0 0 19 19" fill="none" xmlns="http://www.w3.org/2000/svg">
<path d="M6.19467 5.14574L6.43059 4.26529C6.55247 3.89046 6.93305 3.67073 7.29323 3.76724L15.0825 5.83294C15.4574 5.95482 15.6771 6.3354 15.5806 6.69558L13.4895 14.4995C13.393 14.8597 13.0124 15.0794 12.6269 14.9976L11.7464 14.7617C11.3716 14.6398 11.1519 14.2592 11.2337 13.8736L12.6192 9.18343L5.33744 13.3875C4.98223 13.5926 4.58203 13.4854 4.37695 13.1302L3.9082 12.3183C3.71777 11.9884 3.81036 11.5629 4.16556 11.3578L11.4473 7.15368L6.70737 6.03375C6.33254 5.91187 6.08744 5.54594 6.19467 5.14574Z" fill="white"/>
</svg>
