<svg width="24" height="25" viewBox="0 0 24 25" fill="none" xmlns="http://www.w3.org/2000/svg">
<path d="M21 21.23H4.6C4.04 21.23 3.76 21.23 3.546 21.121C3.35785 21.0251 3.20487 20.8721 3.109 20.684C3 20.47 3 20.19 3 19.63V3.22998M20 8.22998L16.081 12.413C15.933 12.571 15.858 12.65 15.769 12.691C15.6899 12.7274 15.6027 12.7426 15.516 12.735C15.418 12.725 15.322 12.675 15.129 12.575L11.871 10.885C11.678 10.785 11.582 10.735 11.484 10.725C11.3973 10.7174 11.3101 10.7325 11.231 10.769C11.141 10.809 11.067 10.889 10.919 11.047L7 15.23" stroke="#EC4A0B" stroke-width="2"/>
</svg>
