<svg width="26" height="24" viewBox="0 0 26 24" fill="none" xmlns="http://www.w3.org/2000/svg">
<path d="M15.4199 2.27V6.4C15.4199 6.96 15.4199 7.24 15.5289 7.454C15.6248 7.64215 15.7778 7.79513 15.9659 7.891C16.1799 8.001 16.4599 8.001 17.0199 8.001H21.1499M10.4199 16L12.4199 18L16.9199 13.5M15.4199 2H10.2199C8.53992 2 7.69992 2 7.05792 2.327C6.49346 2.61462 6.03454 3.07354 5.74692 3.638C5.41992 4.28 5.41992 5.12 5.41992 6.8V17.2C5.41992 18.88 5.41992 19.72 5.74692 20.362C6.03428 20.9263 6.49283 21.3852 7.05692 21.673C7.69992 22 8.53992 22 10.2199 22H16.6199C18.2999 22 19.1399 22 19.7819 21.673C20.346 21.3852 20.8046 20.9263 21.0919 20.362C21.4199 19.72 21.4199 18.88 21.4199 17.2V8L15.4199 2Z" stroke="#3686FD" stroke-width="1.66" stroke-linecap="round" stroke-linejoin="round"/>
</svg>
