<svg width="22" height="20" viewBox="0 0 22 20" fill="none" xmlns="http://www.w3.org/2000/svg">
<path fill-rule="evenodd" clip-rule="evenodd" d="M10.6118 1.66699C8.40164 1.66699 6.28198 2.54498 4.71915 4.10782C3.15631 5.67065 2.27832 7.79031 2.27832 10.0005C2.27832 12.2107 3.15631 14.3303 4.71915 15.8932C6.28198 17.456 8.40164 18.334 10.6118 18.334C12.822 18.334 14.9417 17.456 16.5045 15.8932C18.0673 14.3303 18.9453 12.2107 18.9453 10.0005C18.9453 7.79031 18.0673 5.67065 16.5045 4.10782C14.9417 2.54498 12.822 1.66699 10.6118 1.66699ZM13.7568 8.44499C13.8969 8.27393 13.9632 8.05424 13.9413 7.83426C13.9193 7.61428 13.8109 7.41203 13.6398 7.27199C13.4688 7.13196 13.2491 7.06561 13.0291 7.08756C12.8091 7.1095 12.6069 7.21793 12.4668 7.38899L9.30082 11.26L8.28582 10.244C8.12948 10.0876 7.91743 9.99981 7.69632 9.99981C7.47521 9.99981 7.26316 10.0876 7.10682 10.244C6.95048 10.4003 6.86264 10.6124 6.86264 10.8335C6.86264 11.0546 6.95048 11.2666 7.10682 11.423L8.77382 13.09C8.85615 13.1723 8.95482 13.2364 9.06346 13.2783C9.1721 13.3201 9.28831 13.3387 9.40458 13.3329C9.52085 13.327 9.63461 13.2969 9.73851 13.2444C9.84241 13.1918 9.93416 13.1181 10.0078 13.028L13.7568 8.44499Z" fill="#4992FD"/>
</svg>
