<svg width="40" height="40" viewBox="0 0 40 40" fill="none" xmlns="http://www.w3.org/2000/svg">
<rect x="0.357143" y="0.357143" width="39.2857" height="39.2857" rx="19.6429" stroke="white" stroke-opacity="0.1" stroke-width="0.714286"/>
<path fill-rule="evenodd" clip-rule="evenodd" d="M27.501 14.6417C27.501 13.4578 26.542 12.4989 25.3581 12.4989H14.6438C13.4599 12.4989 12.501 13.4578 12.501 14.6417V25.356C12.501 26.54 13.4599 27.4989 14.6438 27.4989H25.3581C26.542 27.4989 27.501 26.54 27.501 25.356V14.6417Z" fill="white"/>
<path d="M15.4661 24.36H16.5375L19.3983 21.1082L21.8866 24.3546H24.7956L20.9786 19.3082L24.209 15.6385H23.1375L20.4831 18.6546L18.2063 15.6412H15.2036L18.8974 20.46L15.4634 24.3626L15.4661 24.36ZM16.8349 16.4421H17.8099L23.1831 23.551H22.2858L16.8375 16.4421H16.8349Z" fill="#040505"/>
</svg>
