<svg width="40" height="40" viewBox="0 0 40 40" fill="none" xmlns="http://www.w3.org/2000/svg">
<rect x="0.357143" y="0.357143" width="39.2857" height="39.2857" rx="19.6429" stroke="#1C1C1C" stroke-opacity="0.1" stroke-width="0.714286"/>
<path fill-rule="evenodd" clip-rule="evenodd" d="M27.5007 14.6416C27.5007 13.4577 26.5418 12.4988 25.3579 12.4988H14.6436C13.4597 12.4988 12.5007 13.4577 12.5007 14.6416V25.3559C12.5007 26.5399 13.4597 27.4988 14.6436 27.4988H25.3579C26.5418 27.4988 27.5007 26.5399 27.5007 25.3559V14.6416Z" fill="#1C1C1C"/>
<path d="M15.4659 24.3599H16.5373L19.398 21.1081L21.8864 24.3545H24.7953L20.9784 19.3081L24.2087 15.6384H23.1373L20.4828 18.6545L18.206 15.6411H15.2034L18.8971 20.4599L15.4632 24.3625L15.4659 24.3599ZM16.8346 16.442H17.8096L23.1828 23.5509H22.2855L16.8373 16.442H16.8346Z" fill="#040505"/>
</svg>
