<svg width="24" height="25" viewBox="0 0 24 25" fill="none" xmlns="http://www.w3.org/2000/svg">
<path d="M2 12.48C2 18.003 6.477 22.48 12 22.48C12.7956 22.48 13.5587 22.1639 14.1213 21.6013C14.6839 21.0387 15 20.2756 15 19.48V18.98C15 18.516 15 18.283 15.026 18.088C15.1123 17.4335 15.4121 16.8257 15.8789 16.3589C16.3457 15.8921 16.9535 15.5923 17.608 15.506C17.803 15.48 18.036 15.48 18.5 15.48H19C19.7956 15.48 20.5587 15.1639 21.1213 14.6013C21.6839 14.0387 22 13.2756 22 12.48C22 6.95698 17.523 2.47998 12 2.47998C6.477 2.47998 2 6.95698 2 12.48Z" stroke="#007AFF" stroke-width="2"/>
<path d="M7 13.48C7.26522 13.48 7.51957 13.3746 7.70711 13.1871C7.89464 12.9996 8 12.7452 8 12.48C8 12.2148 7.89464 11.9604 7.70711 11.7729C7.51957 11.5853 7.26522 11.48 7 11.48C6.73478 11.48 6.48043 11.5853 6.29289 11.7729C6.10536 11.9604 6 12.2148 6 12.48C6 12.7452 6.10536 12.9996 6.29289 13.1871C6.48043 13.3746 6.73478 13.48 7 13.48ZM16 9.47998C16.2652 9.47998 16.5196 9.37462 16.7071 9.18709C16.8946 8.99955 17 8.7452 17 8.47998C17 8.21476 16.8946 7.96041 16.7071 7.77287C16.5196 7.58534 16.2652 7.47998 16 7.47998C15.7348 7.47998 15.4804 7.58534 15.2929 7.77287C15.1054 7.96041 15 8.21476 15 8.47998C15 8.7452 15.1054 8.99955 15.2929 9.18709C15.4804 9.37462 15.7348 9.47998 16 9.47998ZM10 8.47998C10.2652 8.47998 10.5196 8.37462 10.7071 8.18709C10.8946 7.99955 11 7.7452 11 7.47998C11 7.21476 10.8946 6.96041 10.7071 6.77287C10.5196 6.58534 10.2652 6.47998 10 6.47998C9.73478 6.47998 9.48043 6.58534 9.29289 6.77287C9.10536 6.96041 9 7.21476 9 7.47998C9 7.7452 9.10536 7.99955 9.29289 8.18709C9.48043 8.37462 9.73478 8.47998 10 8.47998Z" stroke="#007AFF" stroke-width="2"/>
</svg>
