<svg width="279" height="116" viewBox="0 0 279 116" fill="none" xmlns="http://www.w3.org/2000/svg">
<path d="M31.968 122.085L30.9605 124.372L30.9655 124.375L31.968 122.085ZM10.2355 105.295L8.21797 106.772L8.22547 106.781L8.23172 106.79L10.2355 105.295ZM1.71297 80.2386V77.7386H-0.894531L-0.784531 80.3436L1.71297 80.2386ZM28.4742 80.2386L30.9692 80.0736L30.8155 77.7386H28.4742V80.2386ZM33.6742 93.7049L31.7405 95.2924L31.753 95.3061L31.7667 95.3224L33.6742 93.7049ZM81.3992 101.886L80.3805 99.6036L80.3717 99.6074L81.3992 101.886ZM93.9292 91.9149L95.9705 93.3574L95.9792 93.3449L93.9292 91.9149ZM93.9292 61.5736L91.8405 62.9486L91.8505 62.9636L91.8605 62.9786L93.9292 61.5736ZM80.8892 51.0061L79.863 53.2861L79.8717 53.2886L80.8892 51.0061ZM45.518 47.1699H43.018V49.6699H45.518V47.1699ZM45.518 25.6924V23.1924H43.018V25.6924H45.518ZM77.308 22.1986L76.243 19.9361L76.233 19.9424L77.308 22.1986ZM88.8992 12.4824L90.9742 13.8761L90.983 13.8636L88.8992 12.4824ZM89.4105 -16.3239L87.2592 -15.0514L87.2692 -15.0326L87.2805 -15.0151L89.4105 -16.3239ZM79.183 -25.7839L78.0305 -23.5651L78.043 -23.5589L79.183 -25.7839ZM47.7342 -26.0401L48.6992 -23.7339L48.7117 -23.7389L47.7342 -26.0401ZM35.8055 -17.1751L37.7517 -15.6064L37.7567 -15.6126L37.763 -15.6201L35.8055 -17.1751ZM30.8605 -3.45511V-0.955112H33.2567L33.358 -3.34887L30.8605 -3.45511ZM5.37797 -3.45511L2.87797 -3.53011L2.80172 -0.955112H5.37672V-3.45511H5.37797ZM13.7305 -28.3414L11.7255 -29.8364L11.718 -29.8251L13.7305 -28.3414ZM92.9917 -44.6189L91.8055 -42.4189L91.8155 -42.4126L91.8242 -42.4089L92.9917 -44.6189ZM111.912 -27.3189L109.782 -26.0101L109.789 -25.9976L111.912 -27.3189ZM118.559 -3.62511L116.059 -3.64137V-3.61012L118.559 -3.62511ZM110.378 21.2624L108.433 19.6899L108.425 19.6999L110.378 21.2624ZM88.5592 34.9811L87.9392 32.5599L86.0592 33.0411V34.9811H88.5592ZM88.5592 36.3449H86.0592V38.4949L88.1842 38.8174L88.5592 36.3449ZM115.493 50.1536L113.593 51.7786L113.599 51.7861L115.493 50.1536ZM125.038 77.8536L122.538 77.8411V77.8661L125.038 77.8511V77.8536ZM117.025 103.676L114.988 102.23L114.979 102.24L117.027 103.677L117.025 103.676ZM95.123 121.659L96.1792 123.925L96.1917 123.92L95.123 121.659ZM63.333 125.636C51.918 125.636 41.8142 123.67 32.973 119.795L30.9655 124.375C40.5342 128.569 51.3392 130.636 63.333 130.636V125.636ZM32.978 119.797C24.178 115.916 17.2942 110.574 12.2405 103.8L8.23297 106.79C13.8617 114.335 21.4667 120.186 30.9605 124.372L32.978 119.797ZM12.253 103.819C7.28047 97.0274 4.59047 89.1599 4.21172 80.1336L-0.783281 80.3436C-0.367031 90.2949 2.62297 99.1311 8.21797 106.772L12.253 103.819ZM1.71422 82.7386H28.4755L28.4742 77.7386H1.71297L1.71172 82.7386H1.71422ZM25.9805 80.4024C26.3555 86.0661 28.268 91.0586 31.743 95.2911L35.6067 92.1186C32.8317 88.7361 31.2792 84.7524 30.9692 80.0736L25.9805 80.4024ZM31.768 95.3224C35.243 99.4186 39.743 102.54 45.1892 104.719L47.0467 100.076C42.2655 98.1636 38.468 95.4899 35.5805 92.0886L31.768 95.3224ZM45.1892 104.719C50.6355 106.897 56.638 107.966 63.163 107.966V102.966C57.188 102.966 51.8267 101.989 47.0467 100.076L45.1892 104.719ZM63.163 107.966C70.328 107.966 76.7692 106.721 82.4305 104.166L80.3717 99.6074C75.4655 101.824 69.748 102.966 63.163 102.966V107.966ZM82.4217 104.169C88.1217 101.622 92.6717 98.0286 95.9717 93.3574L91.888 90.4724C89.1667 94.3236 85.3617 97.3774 80.3805 99.6036L82.4217 104.169ZM95.9792 93.3449C99.3042 88.5774 100.947 83.0999 100.947 76.9999H95.9467C95.9467 82.1499 94.578 86.6149 91.8792 90.4849L95.9792 93.3449ZM100.947 76.9999C100.947 70.6949 99.3155 65.0536 95.9955 60.1686L91.8605 62.9786C94.5642 66.9574 95.9467 71.6011 95.9467 76.9999H100.947ZM96.018 60.1999C92.7592 55.2474 88.008 51.4399 81.908 48.7224L79.873 53.2899C85.2505 55.6849 89.1905 58.9224 91.8405 62.9486L96.018 60.1986V60.1999ZM81.9167 48.7249C75.8317 45.9874 68.5867 44.6699 60.2655 44.6699V49.6699C68.0805 49.6699 74.5855 50.9099 79.8642 53.2849L81.9167 48.7249ZM60.2655 44.6699H45.518V49.6699H60.263V44.6699H60.2655ZM48.0205 47.1699V25.6924H43.0205V47.1699H48.0205ZM45.5205 28.1936H60.2655V23.1936L45.518 23.1924V28.1936H45.5205ZM60.2655 28.1936C67.043 28.1936 73.1042 26.9736 78.3867 24.4561L76.2355 19.9424C71.7442 22.0836 66.443 23.1936 60.2655 23.1936V28.1936ZM78.3767 24.4599C83.6892 21.9561 87.918 18.4349 90.9767 13.8761L86.8267 11.0886C84.3167 14.8261 80.8192 17.7811 76.2455 19.9374L78.3767 24.4599ZM90.9855 13.8636C94.073 9.20238 95.578 3.79613 95.578 -2.26137H90.578C90.578 2.93113 89.2992 7.35364 86.8167 11.1024L90.9855 13.8636ZM95.578 -2.26137C95.578 -8.04762 94.2642 -13.2039 91.543 -17.6326L87.283 -15.0151C89.448 -11.4901 90.578 -7.27011 90.578 -2.26137H95.578ZM91.5655 -17.5964C88.923 -22.0626 85.1505 -25.5339 80.3267 -28.0089L78.0455 -23.5589C82.0842 -21.4876 85.1305 -18.6526 87.2617 -15.0514L91.5655 -17.5964ZM80.338 -28.0026C75.5405 -30.4951 69.958 -31.6939 63.6755 -31.6939V-26.6939C69.323 -26.6939 74.0817 -25.6189 78.033 -23.5651L80.338 -28.0026ZM63.6755 -31.6939C57.6755 -31.6939 52.0292 -30.5814 46.758 -28.3401L48.7155 -23.7401C53.3317 -25.7026 58.3092 -26.6926 63.6742 -26.6926V-31.6926L63.6755 -31.6939ZM46.7717 -28.3464C41.5255 -26.1501 37.1967 -22.9489 33.8467 -18.7314L37.763 -15.6201C40.5505 -19.1301 44.1755 -21.8389 48.7017 -23.7339L46.7717 -28.3464ZM33.8592 -18.7451C30.423 -14.4826 28.6117 -9.38262 28.3642 -3.56137L33.358 -3.34887C33.5655 -8.20761 35.0505 -12.2564 37.7517 -15.6076L33.8592 -18.7451ZM30.8605 -5.95511H5.37797V-0.955112H30.8605V-5.95511ZM7.87672 -3.38012C8.14672 -12.3351 10.778 -20.1326 15.7417 -26.8551L11.718 -29.8251C6.11297 -22.2314 3.17672 -13.4376 2.88047 -3.53011L7.87672 -3.38012ZM15.7342 -26.8464C20.8055 -33.6451 27.5105 -38.9864 35.913 -42.8601L33.8192 -47.4014C24.7217 -43.2064 17.3355 -37.3551 11.7255 -29.8364L15.7342 -26.8464ZM35.913 -42.8601C44.3005 -46.7276 53.6542 -48.6814 64.013 -48.6814V-53.6814C53.0105 -53.6814 42.9317 -51.6026 33.8192 -47.4014L35.913 -42.8601ZM64.013 -48.6814C74.8805 -48.6814 84.1155 -46.5589 91.8055 -42.4189L94.1767 -46.8201C85.618 -51.4289 75.5342 -53.6826 64.0142 -53.6826V-48.6826L64.013 -48.6814ZM91.8242 -42.4089C99.6467 -38.2789 105.605 -32.8089 109.782 -26.0089L114.042 -28.6264C109.354 -36.2589 102.698 -42.3226 94.158 -46.8301L91.8242 -42.4089ZM109.789 -25.9976C114.027 -19.1876 116.113 -11.7539 116.059 -3.64137L121.059 -3.60886C121.119 -12.6551 118.775 -21.0176 114.034 -28.6389L109.789 -25.9976ZM116.059 -3.61012C116.113 5.65614 113.539 13.3724 108.433 19.6899L112.322 22.8324C118.238 15.5136 121.119 6.63988 121.059 -3.64012L116.059 -3.61012ZM108.425 19.6999C103.335 26.0624 96.5467 30.3549 87.938 32.5624L89.1805 37.4049C98.7555 34.9511 106.51 30.0974 112.33 22.8236L108.425 19.6999ZM86.0592 34.9824V36.3449L91.0592 36.3461V34.9836L86.0592 34.9824ZM88.1842 38.8186C99.3042 40.5074 107.692 44.8774 113.59 51.7774L117.39 48.5286C110.565 40.5436 100.998 35.7074 88.9367 33.8749L88.1842 38.8186ZM113.599 51.7861C119.577 58.7161 122.59 67.3424 122.537 77.8399L127.537 77.8649C127.597 66.3174 124.248 56.4774 117.384 48.5211L113.599 51.7861ZM122.537 77.8674C122.59 86.9624 120.073 95.0561 114.988 102.23L119.064 105.122C124.774 97.0686 127.597 87.9461 127.537 77.8374L122.537 77.8674ZM114.979 102.24C109.912 109.465 102.964 115.19 94.0542 119.399L96.1892 123.92C105.802 119.379 113.458 113.116 119.072 105.111L114.979 102.24ZM94.0642 119.394C85.1842 123.534 74.9592 125.636 63.3305 125.636V130.636C75.568 130.636 86.5342 128.421 96.1767 123.925L94.0642 119.394ZM213.019 128.647L213.008 131.147H213.019V128.647ZM156.599 -9.93137L154.264 -10.8226L154.26 -10.8139L156.599 -9.93137ZM178.588 -40.6139L177.109 -42.6289L177.104 -42.6251L178.588 -40.6139ZM247.367 -40.5289L245.874 -38.5226L245.882 -38.5176L247.367 -40.5289ZM269.27 -9.84637L266.93 -8.96387L266.935 -8.95262L269.27 -9.84637ZM269.355 87.3124L271.694 88.1949L271.695 88.1911L269.355 87.3124ZM247.452 118.08L248.937 120.091L248.944 120.085L247.452 118.08ZM240.719 88.5924L238.558 87.3349L238.553 87.3424L240.719 88.5924ZM246.173 1.82988L243.778 2.54613L243.783 2.56239L246.173 1.82988ZM233.134 -21.0126L231.432 -19.1814L231.442 -19.1726L231.452 -19.1639L233.134 -21.0126ZM175.179 38.5624L172.679 38.5549V38.5611H175.179V38.5624ZM179.697 75.4649L177.302 76.1811L177.307 76.1974L179.697 75.4649ZM192.735 98.2199L191.044 100.061L191.054 100.07L192.735 98.2199ZM213.03 126.146C200.02 126.091 189.049 122.67 179.988 115.981L177.018 120.005C187.048 127.406 199.088 131.087 213.009 131.146L213.03 126.146ZM179.988 115.981C170.907 109.279 163.863 99.4574 158.94 86.3474L154.259 88.1049C159.449 101.926 167.009 112.616 177.018 120.005L179.988 115.981ZM158.94 86.3499C154.017 73.2374 151.514 57.3311 151.514 38.5636H146.514C146.514 57.7511 149.069 74.2861 154.259 88.1074L158.94 86.3499ZM151.514 38.5636C151.514 19.8536 154.017 4.00488 158.939 -9.04887L154.26 -10.8139C149.069 2.95113 146.514 19.4336 146.514 38.5636H151.514ZM158.935 -9.04012C163.914 -22.0964 170.987 -31.8951 180.073 -38.6014L177.104 -42.6239C167.099 -35.2389 159.512 -24.5851 154.264 -10.8226L158.935 -9.04012ZM180.067 -38.5964C189.189 -45.2901 200.132 -48.6801 213.02 -48.6801V-53.6801C199.203 -53.6801 187.192 -50.0276 177.109 -42.6289L180.067 -38.5964ZM213.02 -48.6801C225.904 -48.6801 236.813 -45.2651 245.874 -38.5226L248.859 -42.5339C238.83 -49.9951 226.842 -53.6801 213.02 -53.6801V-48.6801ZM245.882 -38.5176C254.965 -31.8126 262.008 -22.0176 266.93 -8.96387L271.609 -10.7276C266.418 -24.4926 258.859 -35.1526 248.852 -42.5389L245.882 -38.5176ZM266.935 -8.95262C271.91 4.03863 274.44 19.8561 274.44 38.5636H279.44C279.44 19.4311 276.857 2.97363 271.604 -10.7401L266.935 -8.95262ZM274.44 38.5636C274.44 57.3886 271.938 73.3261 267.015 86.4349L271.695 88.1911C276.885 74.3699 279.44 57.8061 279.44 38.5636H274.44ZM267.017 86.4311C262.093 99.4849 255.049 109.312 245.959 116.075L248.944 120.085C258.945 112.644 266.504 101.961 271.694 88.1961L267.017 86.4311ZM245.967 116.069C236.907 122.756 225.968 126.149 213.02 126.149V131.149C226.89 131.149 238.907 127.496 248.937 120.092L245.967 116.069ZM213.02 108.394C225.86 108.394 235.859 102.031 242.885 89.8399L238.553 87.3424C232.283 98.2199 223.817 103.394 213.02 103.394V108.394ZM242.88 89.8486C249.905 77.7624 253.275 60.5724 253.275 38.5636H248.275C248.275 60.1911 244.942 76.3536 238.558 87.3361L242.88 89.8486ZM253.275 38.5636C253.275 23.9136 251.727 11.4061 248.563 1.09739L243.783 2.56239C246.757 12.2536 248.275 24.2361 248.275 38.5636H253.275ZM248.568 1.11238C245.473 -9.22511 240.935 -17.2926 234.817 -22.8601L231.452 -19.1639C236.695 -14.3914 240.852 -7.22887 243.778 2.54613L248.568 1.11238ZM234.835 -22.8426C228.742 -28.5064 221.425 -31.3526 213.02 -31.3526V-26.3526C220.183 -26.3526 226.277 -23.9726 231.432 -19.1814L234.835 -22.8426ZM213.02 -31.3526C200.227 -31.3526 190.234 -24.9526 183.157 -12.7176L187.485 -10.2139C193.817 -21.1614 202.29 -26.3526 213.02 -26.3526V-31.3526ZM183.157 -12.7176C176.137 -0.580112 172.737 16.6011 172.679 38.5549L177.679 38.5686C177.735 16.9999 181.097 0.831135 187.485 -10.2139L183.157 -12.7176ZM172.679 38.5624C172.679 53.2649 174.199 65.8224 177.302 76.1811L182.092 74.7486C179.17 64.9949 177.679 52.9511 177.679 38.5624H172.679ZM177.307 76.1999C180.458 86.4749 184.993 94.4999 191.044 100.062L194.428 96.3811C189.229 91.6024 185.07 84.4586 182.087 74.7324L177.307 76.1974V76.1999ZM191.054 100.071C197.159 105.621 204.527 108.394 213.02 108.394V103.394C205.718 103.394 199.563 101.05 194.418 96.3711L191.054 100.071Z" fill="white" fill-opacity="0.12"/>
</svg>
