<svg width="271" height="116" viewBox="0 0 271 116" fill="none" xmlns="http://www.w3.org/2000/svg">
<path d="M30.016 121.38L28.916 123.625L28.9248 123.63L28.9335 123.634L30.016 121.38ZM1.63477 79.6188V77.1188H-0.958984L-0.862734 79.71L1.63477 79.6188ZM27.2035 79.6188L29.6948 79.4113L29.5035 77.1188H27.2035V79.6188ZM76.6348 100.756L77.9098 102.906L77.9173 102.901L76.6348 100.756ZM88.9073 87.8863L86.7198 86.6775L86.7148 86.6863L86.7098 86.695L88.9073 87.8863ZM76.1235 37.09L74.8448 39.2375L74.8535 39.2438L76.1235 37.09ZM57.7148 32.2325L57.7348 29.7325H57.7148V32.2325ZM28.8223 42.1175L28.456 44.59L29.6173 44.7625L30.4923 43.9788L28.8223 42.1175ZM4.70352 38.5388L2.21852 38.2625L1.95227 40.6588L4.33602 41.0125L4.70352 38.5388ZM14.5035 -49.415V-51.915H12.2685L12.021 -49.6925L14.506 -49.415H14.5035ZM110.47 -49.415H112.97V-51.915H110.47V-49.415ZM110.47 -26.83V-24.33H112.97V-26.83H110.47ZM36.4073 -26.83V-29.33H34.176L33.9235 -27.1125L36.4073 -26.83ZM30.8698 22.005L28.3848 21.7238L28.0698 24.505H30.8698V22.005ZM31.8923 22.005V24.505H32.9023L33.6298 23.8025L31.8923 22.005ZM45.4423 13.7375L44.5348 11.4088L44.5273 11.4125L45.4423 13.7375ZM92.0623 18L90.7623 20.1338L90.7673 20.1375L92.0623 18ZM111.75 38.71L109.555 39.9063L109.56 39.915L109.565 39.9238L111.75 38.71ZM118.909 68.71L116.409 68.6975V68.7225L118.909 68.71ZM111.239 98.965L109.08 97.705L109.074 97.7175L111.239 98.965ZM89.9323 119.931L91.1523 122.113L91.1573 122.11L89.9323 119.931ZM58.8235 125.016C48.4673 125.016 39.2423 123.035 31.0985 119.126L28.936 123.634C37.836 127.906 47.816 130.016 58.8235 130.016V125.016ZM31.1173 119.135C23.0023 115.16 16.5785 109.748 11.7798 102.9L7.68602 105.769C13.001 113.355 20.0973 119.306 28.916 123.625L31.1173 119.135ZM11.7798 102.9C7.01477 96.1 4.45727 88.3325 4.13352 79.5263L-0.862734 79.71C-0.505234 89.4275 2.33852 98.1375 7.68602 105.769L11.7798 102.9ZM1.63477 82.1188H27.2035V77.1188H1.63477V82.1188ZM24.7123 79.8263C25.396 88.03 29.0685 94.8175 35.611 100.064L38.7385 96.1625C33.236 91.75 30.261 86.2063 29.6948 79.4113L24.7123 79.8263ZM35.611 100.064C42.1173 105.281 49.8985 107.858 58.8235 107.858V102.858C50.9273 102.858 44.2773 100.604 38.7385 96.1625L35.611 100.064ZM58.8235 107.858C65.9235 107.858 72.311 106.228 77.911 102.905L75.3598 98.605C70.6185 101.419 65.1323 102.858 58.8235 102.858V107.858ZM77.9173 102.901C83.5385 99.5413 87.9423 94.9175 91.106 89.0763L86.7098 86.695C83.9648 91.7625 80.1873 95.72 75.3523 98.6088L77.9173 102.901ZM91.096 89.0938C94.336 83.2263 95.9248 76.58 95.9248 69.2213H90.9248C90.9248 75.8388 89.5023 81.6363 86.7198 86.6775L91.096 89.0938ZM95.9248 69.2213C95.9248 61.7463 94.3073 54.9888 91.0123 49.0088L86.6335 51.4213C89.4748 56.5788 90.9248 62.49 90.9248 69.2213H95.9248ZM91.0123 49.0088C87.731 43.0538 83.1823 38.35 77.3935 34.9363L74.8535 39.2438C79.8598 42.1938 83.7785 46.24 86.6335 51.4213L91.0123 49.0088ZM77.4035 34.9425C71.6385 31.5088 65.0585 29.7925 57.7348 29.7325L57.6948 34.7325C64.2348 34.7863 69.9273 36.3075 74.8448 39.2375L77.4035 34.9425ZM57.7148 29.7325C52.1385 29.7325 46.5548 30.6925 40.971 32.5925L42.5835 37.3263C47.6823 35.59 52.7223 34.7325 57.7148 34.7325V29.7325ZM40.971 32.5925C35.396 34.4913 30.7573 37.025 27.1523 40.2575L30.4898 43.98C33.4773 41.3025 37.4748 39.065 42.581 37.3263L40.971 32.5925ZM29.1885 39.6463L5.06977 36.0663L4.33602 41.0125L28.456 44.59L29.1885 39.6463ZM7.18602 38.8163L16.9873 -49.1387L12.0185 -49.6925L2.21852 38.2625L7.18602 38.8163ZM14.5035 -46.915H110.47V-51.915H14.5035V-46.915ZM107.969 -49.415V-26.83H112.97V-49.415H107.969ZM110.469 -29.33H36.4073V-24.33H110.47L110.469 -29.33ZM33.9223 -27.1125L28.3823 21.7238L33.351 22.2863L38.891 -26.5487L33.9223 -27.1112V-27.1125ZM30.8698 24.505H31.8923V19.505H30.8698V24.505ZM33.6298 23.8025C36.7473 20.79 40.9598 18.1913 46.3598 16.065L44.5273 11.4125C38.6773 13.7163 33.8548 16.63 30.1548 20.2075L33.6298 23.8025ZM46.351 16.0675C51.726 13.9713 57.496 12.9138 63.6823 12.9138V7.91376C56.9135 7.91376 50.5235 9.07251 44.5348 11.4088L46.351 16.0675ZM63.6823 12.9138C73.8923 12.9138 82.896 15.3388 90.7623 20.1338L93.3635 15.865C84.6398 10.5463 74.721 7.91376 63.6823 7.91376V12.9138ZM90.7673 20.1375C98.7335 24.96 104.99 31.5363 109.555 39.9063L113.945 37.5125C108.965 28.3838 102.095 21.1513 93.3573 15.8613L90.7673 20.1375ZM109.565 39.9238C114.159 48.1925 116.465 57.76 116.409 68.6975L121.409 68.7225C121.467 57.0463 119.001 46.6125 113.936 37.495L109.565 39.9238ZM116.409 68.7225C116.464 79.6288 114.004 89.2663 109.08 97.705L113.399 100.225C118.816 90.9375 121.467 80.4038 121.409 68.6975L116.409 68.7225ZM109.074 97.7175C104.189 106.185 97.4135 112.854 88.706 117.754L91.1573 122.11C100.632 116.781 108.062 109.475 113.404 100.215L109.074 97.7175ZM88.711 117.75C80.096 122.571 70.1573 125.016 58.8235 125.016V130.016C70.8985 130.016 81.6985 127.404 91.1523 122.113L88.711 117.75ZM205.806 128.028L205.796 130.528H205.806V128.028ZM149.385 -10.5512L147.049 -11.4425L147.045 -11.4337L149.385 -10.5512ZM171.372 -41.2337L169.894 -43.2487L169.889 -43.245L171.372 -41.2337ZM240.151 -41.1487L238.659 -39.1425L238.667 -39.1375L240.151 -41.1487ZM262.055 -10.4662L259.716 -9.58374L259.72 -9.57249L262.055 -10.4662ZM262.14 86.6925L264.479 87.575L264.48 87.5713L262.14 86.6925ZM240.236 117.46L241.721 119.473L241.729 119.465L240.236 117.46ZM233.504 87.9725L231.342 86.715L231.337 86.7225L233.504 87.9725ZM238.958 1.21001L236.564 1.92626L236.568 1.94251L238.958 1.21001ZM225.919 -21.6325L224.216 -19.8012L224.226 -19.7925L224.236 -19.7837L225.919 -21.6325ZM167.964 37.9425L165.464 37.935V37.9413L167.964 37.9425ZM172.481 74.845L170.086 75.5613L170.091 75.5775L172.481 74.845ZM185.521 97.6L183.828 99.4413L183.839 99.45L185.521 97.6ZM205.815 125.526C192.805 125.471 181.835 122.05 172.772 115.361L169.804 119.385C179.832 126.786 191.872 130.467 205.795 130.526L205.815 125.526ZM172.772 115.361C163.691 108.659 156.649 98.8375 151.725 85.7275L147.044 87.485C152.234 101.306 159.794 111.996 169.804 119.385L172.772 115.361ZM151.725 85.73C146.801 72.6175 144.299 56.7113 144.299 37.9438H139.299C139.299 57.1313 141.854 73.6663 147.044 87.4875L151.725 85.73ZM144.299 37.9438C144.299 19.2338 146.801 3.38501 151.724 -9.66874L147.045 -11.4337C141.854 2.33126 139.299 18.8138 139.299 37.9438H144.299ZM151.72 -9.65999C156.7 -22.7162 163.771 -32.515 172.857 -39.2212L169.889 -43.2437C159.884 -35.8587 152.296 -25.2037 147.049 -11.4425L151.72 -9.65999ZM172.852 -39.2162C181.974 -45.91 192.917 -49.3 205.805 -49.3V-54.3C191.989 -54.3 179.976 -50.6475 169.894 -43.2487L172.852 -39.2162ZM205.805 -49.3C218.689 -49.3 229.597 -45.885 238.659 -39.1425L241.644 -43.1537C231.615 -50.615 219.626 -54.3 205.805 -54.3V-49.3ZM238.667 -39.1375C247.75 -32.4325 254.794 -22.6375 259.716 -9.58374L264.394 -11.3475C259.202 -25.1125 251.643 -35.7725 241.636 -43.1587L238.667 -39.1375ZM259.72 -9.57249C264.695 3.41876 267.225 19.235 267.225 37.9425H272.225C272.225 18.81 269.641 2.35251 264.39 -11.3612L259.72 -9.57249ZM267.225 37.9425C267.225 56.7675 264.722 72.705 259.8 85.8138L264.48 87.5713C269.671 73.75 272.225 57.185 272.225 37.9425H267.225ZM259.801 85.81C254.878 98.8638 247.834 108.691 238.745 115.454L241.729 119.465C251.731 112.024 259.289 101.34 264.479 87.575L259.801 85.81ZM238.752 115.448C229.691 122.135 218.752 125.528 205.805 125.528L205.806 130.528C219.677 130.528 231.691 126.875 241.721 119.471L238.752 115.448ZM205.805 107.772C218.645 107.772 228.644 101.41 235.67 89.2188L231.337 86.7225C225.068 97.6 216.601 102.773 205.805 102.773V107.772ZM235.665 89.2275C242.69 77.1413 246.06 59.9513 246.06 37.9425H241.06C241.06 59.57 237.726 75.7325 231.342 86.715L235.665 89.2275ZM246.06 37.9425C246.06 23.2925 244.511 10.785 241.349 0.476261L236.568 1.94251C239.541 11.6338 241.06 23.615 241.06 37.9425H246.06ZM241.354 0.492512C238.257 -9.84499 233.72 -17.9125 227.601 -23.48L224.236 -19.7837C229.48 -15.0112 233.636 -7.84874 236.564 1.92626L241.354 0.492512ZM227.62 -23.4625C221.526 -29.1262 214.211 -31.9725 205.805 -31.9725V-26.9725C212.967 -26.9725 219.061 -24.5925 224.216 -19.8012L227.62 -23.4625ZM205.805 -31.9725C193.012 -31.9725 183.019 -25.5725 175.942 -13.3375L180.27 -10.8337C186.601 -21.7812 195.075 -26.9725 205.805 -26.9725V-31.9725ZM175.942 -13.3375C168.922 -1.19999 165.521 15.9825 165.464 37.9363L170.464 37.9488C170.52 16.38 173.881 0.210011 180.27 -10.8337L175.942 -13.3362V-13.3375ZM165.464 37.9413C165.464 52.6438 166.984 65.2025 170.086 75.5613L174.876 74.1288C171.955 64.375 170.464 52.3313 170.464 37.9425L165.464 37.9413ZM170.091 75.58C173.244 85.855 177.777 93.8788 183.828 99.4413L187.212 95.7613C182.014 90.9825 177.854 83.8388 174.871 74.1125L170.091 75.58ZM183.839 99.45C189.944 105 197.312 107.772 205.805 107.772V102.773C198.502 102.773 192.347 100.43 187.202 95.7513L183.839 99.45Z" fill="white" fill-opacity="0.12"/>
</svg>
