<svg width="11" height="11" viewBox="0 0 11 11" fill="none" xmlns="http://www.w3.org/2000/svg">
<path d="M6.28382 0.358221C6.01243 0.126996 5.66756 0 5.31102 0C4.95449 0 4.60961 0.126996 4.33822 0.358221L3.66382 0.932621C3.58385 1.00067 3.48449 1.04181 3.37982 1.05022L2.49662 1.12062C2.14113 1.14897 1.80738 1.30305 1.55521 1.55521C1.30305 1.80738 1.14897 2.14113 1.12062 2.49662L1.05022 3.37982C1.04181 3.48449 1.00067 3.58385 0.932621 3.66382L0.358221 4.33822C0.126996 4.60961 0 4.95449 0 5.31102C0 5.66756 0.126996 6.01243 0.358221 6.28382L0.932621 6.95822C1.00062 7.03822 1.04222 7.13742 1.05022 7.24222L1.12062 8.12542C1.14897 8.48091 1.30305 8.81466 1.55521 9.06683C1.80738 9.31899 2.14113 9.47307 2.49662 9.50142L3.37982 9.57182C3.48382 9.57982 3.58382 9.62142 3.66382 9.68942L4.33822 10.2638C4.89822 10.7414 5.72302 10.7414 6.28382 10.2638L6.95822 9.68942C7.03819 9.62137 7.13755 9.58023 7.24222 9.57182L8.12542 9.50142C8.48091 9.47307 8.81466 9.31899 9.06683 9.06683C9.31899 8.81466 9.47307 8.48091 9.50142 8.12542L9.57182 7.24222C9.58023 7.13755 9.62137 7.03819 9.68942 6.95822L10.2638 6.28382C10.7414 5.72382 10.7414 4.89902 10.2638 4.33822L9.68942 3.66382C9.62137 3.58385 9.58023 3.48449 9.57182 3.37982L9.50142 2.49662C9.47307 2.14113 9.31899 1.80738 9.06683 1.55521C8.81466 1.30305 8.48091 1.14897 8.12542 1.12062L7.24222 1.05022C7.13755 1.04181 7.03819 1.00067 6.95822 0.932621L6.28382 0.358221ZM6.72542 3.19022L7.43262 3.89662L3.89662 7.43262L3.18942 6.72542L6.72542 3.19022ZM4.42702 4.42622C4.35828 4.49935 4.27555 4.55793 4.18375 4.59849C4.09194 4.63904 3.99292 4.66075 3.89257 4.66232C3.79222 4.66389 3.69257 4.64529 3.59954 4.60763C3.50651 4.56997 3.42199 4.514 3.35099 4.44306C3.28 4.37212 3.22397 4.28764 3.18624 4.19464C3.1485 4.10164 3.12983 4.002 3.13132 3.90165C3.13282 3.8013 3.15445 3.70226 3.19494 3.61043C3.23543 3.51859 3.29394 3.43582 3.36702 3.36702C3.50769 3.22635 3.69848 3.14732 3.89742 3.14732C4.09636 3.14732 4.28715 3.22635 4.42782 3.36702C4.56849 3.50769 4.64752 3.69848 4.64752 3.89742C4.64752 4.09636 4.56849 4.28715 4.42782 4.42782L4.42702 4.42622ZM6.19502 7.25502C6.05435 7.11435 5.97532 6.92356 5.97532 6.72462C5.97532 6.52568 6.05435 6.33489 6.19502 6.19422C6.33569 6.05355 6.52648 5.97452 6.72542 5.97452C6.92436 5.97452 7.11515 6.05355 7.25582 6.19422C7.39649 6.33489 7.47552 6.52568 7.47552 6.72462C7.47552 6.92356 7.39649 7.11435 7.25582 7.25502C7.11515 7.39569 6.92436 7.47472 6.72542 7.47472C6.52648 7.47472 6.33569 7.39569 6.19502 7.25502Z" fill="white"/>
</svg>
