<svg width="40" height="41" viewBox="0 0 40 41" fill="none" xmlns="http://www.w3.org/2000/svg">
<rect x="0.357143" y="1.08712" width="39.2857" height="39.2857" rx="19.6429" stroke="#1C1C1C" stroke-opacity="0.1" stroke-width="0.714286"/>
<g clip-path="url(#clip0_172_7559)">
<path d="M20.0003 13.5874C21.941 13.5874 22.1831 13.5945 22.9446 13.6303C23.7053 13.666 24.2231 13.7853 24.6789 13.9624C25.1503 14.1438 25.5474 14.3895 25.9446 14.786C26.3078 15.143 26.5888 15.575 26.7681 16.0517C26.9446 16.5067 27.0646 17.0253 27.1003 17.786C27.1339 18.5474 27.1431 18.7895 27.1431 20.7303C27.1431 22.671 27.136 22.9131 27.1003 23.6745C27.0646 24.4353 26.9446 24.9531 26.7681 25.4088C26.5893 25.8858 26.3082 26.3178 25.9446 26.6745C25.5874 27.0376 25.1555 27.3187 24.6789 27.4981C24.2239 27.6745 23.7053 27.7945 22.9446 27.8303C22.1831 27.8638 21.941 27.8731 20.0003 27.8731C18.0596 27.8731 17.8174 27.866 17.056 27.8303C16.2953 27.7945 15.7774 27.6745 15.3217 27.4981C14.8448 27.3192 14.4128 27.0381 14.056 26.6745C13.6927 26.3175 13.4117 25.8856 13.2324 25.4088C13.0553 24.9538 12.936 24.4353 12.9003 23.6745C12.8667 22.9131 12.8574 22.671 12.8574 20.7303C12.8574 18.7895 12.8646 18.5474 12.9003 17.786C12.936 17.0245 13.0553 16.5074 13.2324 16.0517C13.4112 15.5747 13.6923 15.1426 14.056 14.786C14.4129 14.4226 14.8449 14.1415 15.3217 13.9624C15.7774 13.7853 16.2946 13.666 17.056 13.6303C17.8174 13.5967 18.0596 13.5874 20.0003 13.5874ZM20.0003 17.1588C19.0531 17.1588 18.1447 17.5351 17.4749 18.2049C16.8051 18.8747 16.4289 19.7831 16.4289 20.7303C16.4289 21.6775 16.8051 22.5859 17.4749 23.2556C18.1447 23.9254 19.0531 24.3017 20.0003 24.3017C20.9475 24.3017 21.8559 23.9254 22.5257 23.2556C23.1954 22.5859 23.5717 21.6775 23.5717 20.7303C23.5717 19.7831 23.1954 18.8747 22.5257 18.2049C21.8559 17.5351 20.9475 17.1588 20.0003 17.1588ZM24.6431 16.9803C24.6431 16.7435 24.5491 16.5164 24.3816 16.3489C24.2142 16.1815 23.9871 16.0874 23.7503 16.0874C23.5135 16.0874 23.2864 16.1815 23.1189 16.3489C22.9515 16.5164 22.8574 16.7435 22.8574 16.9803C22.8574 17.2171 22.9515 17.4442 23.1189 17.6116C23.2864 17.779 23.5135 17.8731 23.7503 17.8731C23.9871 17.8731 24.2142 17.779 24.3816 17.6116C24.5491 17.4442 24.6431 17.2171 24.6431 16.9803ZM20.0003 18.5874C20.5686 18.5874 21.1136 18.8132 21.5155 19.215C21.9174 19.6169 22.1431 20.1619 22.1431 20.7303C22.1431 21.2986 21.9174 21.8436 21.5155 22.2455C21.1136 22.6474 20.5686 22.8731 20.0003 22.8731C19.432 22.8731 18.8869 22.6474 18.4851 22.2455C18.0832 21.8436 17.8574 21.2986 17.8574 20.7303C17.8574 20.1619 18.0832 19.6169 18.4851 19.215C18.8869 18.8132 19.432 18.5874 20.0003 18.5874Z" fill="#1C1C1C"/>
</g>
<defs>
<clipPath id="clip0_172_7559">
<rect width="17.1429" height="17.1429" fill="white" transform="translate(11.4287 12.1587)"/>
</clipPath>
</defs>
</svg>
