<svg width="40" height="41" viewBox="0 0 40 41" fill="none" xmlns="http://www.w3.org/2000/svg">
<rect x="0.357143" y="1.08712" width="39.2857" height="39.2857" rx="19.6429" stroke="#1C1C1C" stroke-opacity="0.1" stroke-width="0.714286"/>
<g clip-path="url(#clip0_172_7561)">
<path d="M24.8449 27.7453H15.249C13.9819 27.7453 12.9512 26.7167 12.9512 25.4522V15.8804C12.9512 14.616 13.9819 13.5874 15.249 13.5874H24.8449C26.1116 13.5874 27.1424 14.616 27.1424 15.8804V25.4526C27.1424 26.7171 26.1116 27.7453 24.8449 27.7453ZM17.7464 25.2918H17.7493V19.1848H15.8493V25.2918H17.746H17.7464ZM16.7981 18.3508C16.9425 18.351 17.0856 18.3227 17.2191 18.2675C17.3526 18.2123 17.4739 18.1313 17.576 18.0291C17.6782 17.927 17.7592 17.8057 17.8144 17.6722C17.8696 17.5387 17.8979 17.3956 17.8977 17.2511C17.8971 16.9597 17.7811 16.6803 17.575 16.4742C17.3689 16.2681 17.0895 16.1521 16.7981 16.1515C16.5064 16.1516 16.2268 16.2675 16.0206 16.4737C15.8144 16.6799 15.6985 16.9595 15.6984 17.2511C15.6985 17.5428 15.8144 17.8224 16.0206 18.0286C16.2268 18.2348 16.5064 18.3507 16.7981 18.3508ZM24.8559 25.2922V21.9442C24.8559 20.2991 24.4988 19.0336 22.5794 19.0336C21.6567 19.0336 21.0373 19.5391 20.7827 20.0189H20.757V19.1848H18.9376V25.2918H20.8343V22.2698C20.8343 21.4728 20.9856 20.7017 21.9735 20.7017C22.9449 20.7017 22.9592 21.613 22.9592 22.3211V25.2918H24.8559V25.2922Z" fill="#1C1C1C"/>
</g>
<defs>
<clipPath id="clip0_172_7561">
<rect width="14.2857" height="14.2857" fill="white" transform="translate(12.8574 13.5879)"/>
</clipPath>
</defs>
</svg>
