<svg width="142" height="48" viewBox="0 0 142 48" fill="none" xmlns="http://www.w3.org/2000/svg">
<path d="M17.501 19.224C17.501 21.08 16.861 22.6267 15.581 23.864C14.3223 25.08 12.3917 25.688 9.789 25.688H5.501V35H2.589V12.696H9.789C12.3063 12.696 14.2157 13.304 15.517 14.52C16.8397 15.736 17.501 17.304 17.501 19.224ZM9.789 23.288C11.4103 23.288 12.605 22.936 13.373 22.232C14.141 21.528 14.525 20.5253 14.525 19.224C14.525 16.472 12.9463 15.096 9.789 15.096H5.501V23.288H9.789ZM37.1203 25.56C37.1203 26.1147 37.0883 26.7013 37.0243 27.32H23.0083C23.1149 29.048 23.7016 30.4027 24.7683 31.384C25.8563 32.344 27.1683 32.824 28.7043 32.824C29.9629 32.824 31.0083 32.536 31.8403 31.96C32.6936 31.3627 33.2909 30.5733 33.6323 29.592H36.7683C36.2989 31.2773 35.3603 32.6533 33.9523 33.72C32.5443 34.7653 30.7949 35.288 28.7043 35.288C27.0403 35.288 25.5469 34.9147 24.2243 34.168C22.9229 33.4213 21.8989 32.3653 21.1523 31C20.4056 29.6133 20.0323 28.0133 20.0323 26.2C20.0323 24.3867 20.3949 22.7973 21.1203 21.432C21.8456 20.0667 22.8589 19.0213 24.1603 18.296C25.4829 17.5493 26.9976 17.176 28.7043 17.176C30.3683 17.176 31.8403 17.5387 33.1203 18.264C34.4003 18.9893 35.3816 19.992 36.0643 21.272C36.7683 22.5307 37.1203 23.96 37.1203 25.56ZM34.1123 24.952C34.1123 23.8427 33.8669 22.8933 33.3763 22.104C32.8856 21.2933 32.2136 20.6853 31.3603 20.28C30.5283 19.8533 29.6003 19.64 28.5763 19.64C27.1043 19.64 25.8456 20.1093 24.8003 21.048C23.7763 21.9867 23.1896 23.288 23.0403 24.952H34.1123ZM56.964 25.56C56.964 26.1147 56.932 26.7013 56.868 27.32H42.852C42.9587 29.048 43.5453 30.4027 44.612 31.384C45.7 32.344 47.012 32.824 48.548 32.824C49.8067 32.824 50.852 32.536 51.684 31.96C52.5373 31.3627 53.1347 30.5733 53.476 29.592H56.612C56.1427 31.2773 55.204 32.6533 53.796 33.72C52.388 34.7653 50.6387 35.288 48.548 35.288C46.884 35.288 45.3907 34.9147 44.068 34.168C42.7667 33.4213 41.7427 32.3653 40.996 31C40.2493 29.6133 39.876 28.0133 39.876 26.2C39.876 24.3867 40.2387 22.7973 40.964 21.432C41.6893 20.0667 42.7027 19.0213 44.004 18.296C45.3267 17.5493 46.8413 17.176 48.548 17.176C50.212 17.176 51.684 17.5387 52.964 18.264C54.244 18.9893 55.2253 19.992 55.908 21.272C56.612 22.5307 56.964 23.96 56.964 25.56ZM53.956 24.952C53.956 23.8427 53.7107 22.8933 53.22 22.104C52.7293 21.2933 52.0573 20.6853 51.204 20.28C50.372 19.8533 49.444 19.64 48.42 19.64C46.948 19.64 45.6893 20.1093 44.644 21.048C43.62 21.9867 43.0333 23.288 42.884 24.952H53.956ZM63.7198 20.312C64.2318 19.3093 64.9571 18.5307 65.8958 17.976C66.8558 17.4213 68.0184 17.144 69.3838 17.144V20.152H68.6158C65.3518 20.152 63.7198 21.9227 63.7198 25.464V35H60.8078V17.464H63.7198V20.312ZM71.6573 26.168C71.6573 24.376 72.0199 22.808 72.7453 21.464C73.4706 20.0987 74.4626 19.0427 75.7213 18.296C77.0013 17.5493 78.4199 17.176 79.9773 17.176C81.5133 17.176 82.8466 17.5067 83.9773 18.168C85.1079 18.8293 85.9506 19.6613 86.5053 20.664V17.464H89.4493V35H86.5053V31.736C85.9293 32.76 85.0653 33.6133 83.9133 34.296C82.7826 34.9573 81.4599 35.288 79.9453 35.288C78.3879 35.288 76.9799 34.904 75.7213 34.136C74.4626 33.368 73.4706 32.2907 72.7453 30.904C72.0199 29.5173 71.6573 27.9387 71.6573 26.168ZM86.5053 26.2C86.5053 24.8773 86.2386 23.7253 85.7053 22.744C85.1719 21.7627 84.4466 21.016 83.5293 20.504C82.6333 19.9707 81.6413 19.704 80.5533 19.704C79.4653 19.704 78.4733 19.96 77.5773 20.472C76.6813 20.984 75.9666 21.7307 75.4333 22.712C74.8999 23.6933 74.6333 24.8453 74.6333 26.168C74.6333 27.512 74.8999 28.6853 75.4333 29.688C75.9666 30.6693 76.6813 31.4267 77.5773 31.96C78.4733 32.472 79.4653 32.728 80.5533 32.728C81.6413 32.728 82.6333 32.472 83.5293 31.96C84.4466 31.4267 85.1719 30.6693 85.7053 29.688C86.2386 28.6853 86.5053 27.5227 86.5053 26.2ZM97.2823 11.32V35H94.3703V11.32H97.2823ZM109.477 17.176C110.992 17.176 112.315 17.5067 113.445 18.168C114.597 18.8293 115.451 19.6613 116.005 20.664V17.464H118.949V35.384C118.949 36.984 118.608 38.4027 117.925 39.64C117.243 40.8987 116.261 41.88 114.981 42.584C113.723 43.288 112.251 43.64 110.565 43.64C108.261 43.64 106.341 43.096 104.805 42.008C103.269 40.92 102.363 39.4373 102.085 37.56H104.965C105.285 38.6267 105.947 39.48 106.949 40.12C107.952 40.7813 109.157 41.112 110.565 41.112C112.165 41.112 113.467 40.6107 114.469 39.608C115.493 38.6053 116.005 37.1973 116.005 35.384V31.704C115.429 32.728 114.576 33.5813 113.445 34.264C112.315 34.9467 110.992 35.288 109.477 35.288C107.92 35.288 106.501 34.904 105.221 34.136C103.963 33.368 102.971 32.2907 102.245 30.904C101.52 29.5173 101.157 27.9387 101.157 26.168C101.157 24.376 101.52 22.808 102.245 21.464C102.971 20.0987 103.963 19.0427 105.221 18.296C106.501 17.5493 107.92 17.176 109.477 17.176ZM116.005 26.2C116.005 24.8773 115.739 23.7253 115.205 22.744C114.672 21.7627 113.947 21.016 113.029 20.504C112.133 19.9707 111.141 19.704 110.053 19.704C108.965 19.704 107.973 19.96 107.077 20.472C106.181 20.984 105.467 21.7307 104.933 22.712C104.4 23.6933 104.133 24.8453 104.133 26.168C104.133 27.512 104.4 28.6853 104.933 29.688C105.467 30.6693 106.181 31.4267 107.077 31.96C107.973 32.472 108.965 32.728 110.053 32.728C111.141 32.728 112.133 32.472 113.029 31.96C113.947 31.4267 114.672 30.6693 115.205 29.688C115.739 28.6853 116.005 27.5227 116.005 26.2ZM131.518 35.288C129.876 35.288 128.382 34.9147 127.038 34.168C125.716 33.4213 124.67 32.3653 123.902 31C123.156 29.6133 122.782 28.0133 122.782 26.2C122.782 24.408 123.166 22.8293 123.934 21.464C124.724 20.0773 125.79 19.0213 127.134 18.296C128.478 17.5493 129.982 17.176 131.646 17.176C133.31 17.176 134.814 17.5493 136.158 18.296C137.502 19.0213 138.558 20.0667 139.326 21.432C140.116 22.7973 140.51 24.3867 140.51 26.2C140.51 28.0133 140.105 29.6133 139.294 31C138.505 32.3653 137.428 33.4213 136.062 34.168C134.697 34.9147 133.182 35.288 131.518 35.288ZM131.518 32.728C132.564 32.728 133.545 32.4827 134.462 31.992C135.38 31.5013 136.116 30.7653 136.67 29.784C137.246 28.8027 137.534 27.608 137.534 26.2C137.534 24.792 137.257 23.5973 136.702 22.616C136.148 21.6347 135.422 20.9093 134.526 20.44C133.63 19.9493 132.66 19.704 131.614 19.704C130.548 19.704 129.566 19.9493 128.67 20.44C127.796 20.9093 127.092 21.6347 126.558 22.616C126.025 23.5973 125.758 24.792 125.758 26.2C125.758 27.6293 126.014 28.8347 126.526 29.816C127.06 30.7973 127.764 31.5333 128.638 32.024C129.513 32.4933 130.473 32.728 131.518 32.728Z" fill="url(#paint0_linear_169_696)"/>
<defs>
<linearGradient id="paint0_linear_169_696" x1="71" y1="48" x2="71" y2="0" gradientUnits="userSpaceOnUse">
<stop stop-color="#1C1C1C" stop-opacity="0.7"/>
<stop offset="1"/>
</linearGradient>
</defs>
</svg>
