<svg width="21" height="21" viewBox="0 0 21 21" fill="none" xmlns="http://www.w3.org/2000/svg">
<path d="M16.942 15.472C17.8 15.637 18.229 15.72 18.442 15.645C18.5369 15.6174 18.6251 15.5706 18.7013 15.5077C18.7775 15.4448 18.84 15.3669 18.885 15.279C18.999 15.084 18.999 14.705 18.999 13.949V4.99C18.999 4.84 18.999 4.765 18.949 4.628C18.8969 4.51108 18.8267 4.40309 18.741 4.308C18.635 4.208 18.599 4.191 18.526 4.159C17.976 3.917 16.873 3.604 14.832 3.604C11.499 3.604 8.99903 5.271 6.49903 5.271C5.79096 5.27119 5.08446 5.20422 4.38903 5.071C3.53003 4.906 3.10103 4.824 2.88903 4.898C2.79408 4.92577 2.70581 4.97264 2.62963 5.03575C2.55345 5.09886 2.49097 5.17688 2.44603 5.265C2.33203 5.459 2.33203 5.838 2.33203 6.595V15.552C2.33203 15.702 2.33203 15.777 2.38203 15.914C2.41203 15.997 2.52703 16.174 2.59003 16.234C2.69603 16.334 2.73203 16.351 2.80503 16.384C3.35503 16.625 4.45803 16.938 6.49903 16.938C9.83203 16.938 12.332 15.271 14.832 15.271C15.629 15.271 16.342 15.356 16.942 15.471V15.472Z" fill="#6CE9A6"/>
<path d="M10.665 12.355C11.2175 12.355 11.7473 12.1355 12.1379 11.7449C12.5286 11.3542 12.748 10.8244 12.748 10.272C12.748 9.71952 12.5286 9.1897 12.1379 8.79906C11.7473 8.40842 11.2175 8.18896 10.665 8.18896C10.1126 8.18896 9.58277 8.40842 9.19213 8.79906C8.80149 9.1897 8.58203 9.71952 8.58203 10.272C8.58203 10.8244 8.80149 11.3542 9.19213 11.7449C9.58277 12.1355 10.1126 12.355 10.665 12.355Z" fill="#6CE9A6"/>
<path d="M5.66503 9.43898V12.772M15.665 7.77198V11.105M14.832 3.60498C16.872 3.60498 17.976 3.91798 18.526 4.15998C18.599 4.19198 18.636 4.20798 18.741 4.30998C18.804 4.36998 18.919 4.54698 18.949 4.62898C18.999 4.76598 18.999 4.84098 18.999 4.99098V13.948C18.999 14.705 18.999 15.084 18.885 15.278C18.8401 15.3661 18.7776 15.4441 18.7014 15.5072C18.6253 15.5703 18.537 15.6172 18.442 15.645C18.229 15.72 17.8 15.637 16.942 15.472C16.342 15.357 15.629 15.272 14.832 15.272C12.332 15.272 9.83203 16.939 6.49903 16.939C4.45903 16.939 3.35403 16.626 2.80503 16.384C2.73203 16.352 2.69503 16.336 2.59003 16.235C2.50437 16.1399 2.43418 16.0319 2.38203 15.915C2.33203 15.778 2.33203 15.703 2.33203 15.553V6.59598C2.33203 5.83898 2.33203 5.45998 2.44603 5.26598C2.49097 5.17785 2.55345 5.09984 2.62963 5.03673C2.70581 4.97362 2.79408 4.92674 2.88903 4.89898C3.10103 4.82498 3.53003 4.90698 4.38903 5.07198C4.98903 5.18698 5.70203 5.27198 6.49903 5.27198C8.99903 5.27198 11.499 3.60498 14.832 3.60498ZM12.749 10.272C12.749 10.8246 12.5295 11.3545 12.1388 11.7452C11.7481 12.136 11.2181 12.3555 10.6655 12.3555C10.113 12.3555 9.58301 12.136 9.19227 11.7452C8.80154 11.3545 8.58203 10.8246 8.58203 10.272C8.58203 9.7194 8.80154 9.18946 9.19227 8.79872C9.58301 8.40799 10.113 8.18848 10.6655 8.18848C11.2181 8.18848 11.7481 8.40799 12.1388 8.79872C12.5295 9.18946 12.749 9.7194 12.749 10.272Z" stroke="black" stroke-linecap="round" stroke-linejoin="round"/>
</svg>
