<svg width="21" height="21" viewBox="0 0 21 21" fill="none" xmlns="http://www.w3.org/2000/svg">
<path d="M8.99902 10.272C9.49148 10.272 9.97912 10.175 10.4341 9.98652C10.8891 9.79807 11.3025 9.52184 11.6507 9.17362C11.9989 8.8254 12.2751 8.41201 12.4636 7.95704C12.652 7.50206 12.749 7.01443 12.749 6.52197C12.749 6.02952 12.652 5.54188 12.4636 5.08691C12.2751 4.63194 11.9989 4.21854 11.6507 3.87032C11.3025 3.5221 10.8891 3.24588 10.4341 3.05742C9.97912 2.86897 9.49148 2.77197 8.99902 2.77197C8.00446 2.77197 7.05063 3.16706 6.34737 3.87032C5.64411 4.57358 5.24902 5.52741 5.24902 6.52197C5.24902 7.51653 5.64411 8.47036 6.34737 9.17362C7.05063 9.87688 8.00446 10.272 8.99902 10.272ZM13.999 15.272L15.665 16.939L19 13.605" fill="#D6BBFB"/>
<path d="M10.665 13.189H6.91503C5.75203 13.189 5.17103 13.189 4.69803 13.332C4.17351 13.4911 3.69632 13.7771 3.30873 14.1647C2.92115 14.5523 2.63514 15.0294 2.47603 15.554C2.33203 16.027 2.33203 16.609 2.33203 17.772M13.999 15.272L15.665 16.939L19 13.605M12.75 6.52197C12.75 7.51653 12.3549 8.47036 11.6517 9.17362C10.9484 9.87688 9.99459 10.272 9.00003 10.272C8.00547 10.272 7.05164 9.87688 6.34838 9.17362C5.64512 8.47036 5.25003 7.51653 5.25003 6.52197C5.25003 5.52741 5.64512 4.57358 6.34838 3.87032C7.05164 3.16706 8.00547 2.77197 9.00003 2.77197C9.99459 2.77197 10.9484 3.16706 11.6517 3.87032C12.3549 4.57358 12.75 5.52741 12.75 6.52197Z" stroke="black" stroke-linecap="round" stroke-linejoin="round"/>
</svg>
