<svg width="21" height="21" viewBox="0 0 21 21" fill="none" xmlns="http://www.w3.org/2000/svg">
<path d="M10.6646 18.605C12.8747 18.605 14.9944 17.727 16.5572 16.1642C18.1201 14.6013 18.9981 12.4817 18.9981 10.2715C18.9981 8.06131 18.1201 5.94165 16.5572 4.37881C14.9944 2.81598 12.8747 1.93799 10.6646 1.93799C8.45437 1.93799 6.33471 2.81598 4.77188 4.37881C3.20905 5.94165 2.33105 8.06131 2.33105 10.2715C2.33105 12.4817 3.20905 14.6013 4.77188 16.1642C6.33471 17.727 8.45437 18.605 10.6646 18.605Z" fill="#FEC84B"/>
<path d="M13.582 7.77207C13.5848 7.82849 13.5761 7.88487 13.5564 7.93781C13.5367 7.99075 13.5065 8.03914 13.4675 8.08004C13.4286 8.12095 13.3817 8.15351 13.3298 8.17576C13.2779 8.19801 13.222 8.20949 13.1655 8.20949C13.1091 8.20949 13.0532 8.19801 13.0013 8.17576C12.9493 8.15351 12.9025 8.12095 12.8635 8.08004C12.8246 8.03914 12.7944 7.99075 12.7747 7.93781C12.755 7.88487 12.7463 7.82849 12.749 7.77207C12.7543 7.66514 12.8004 7.56432 12.878 7.49049C12.9555 7.41667 13.0585 7.37549 13.1655 7.37549C13.2726 7.37549 13.3756 7.41667 13.4531 7.49049C13.5306 7.56432 13.5768 7.66514 13.582 7.77207ZM8.58204 7.77207C8.5848 7.82849 8.57608 7.88487 8.5564 7.93781C8.53671 7.99075 8.50648 8.03914 8.46753 8.08004C8.42859 8.12095 8.38174 8.15351 8.32982 8.17576C8.27791 8.19801 8.22202 8.20949 8.16554 8.20949C8.10906 8.20949 8.05317 8.19801 8.00126 8.17576C7.94934 8.15351 7.90249 8.12095 7.86354 8.08004C7.8246 8.03914 7.79436 7.99075 7.77468 7.93781C7.755 7.88487 7.74627 7.82849 7.74904 7.77207C7.75428 7.66514 7.80045 7.56432 7.87798 7.49049C7.95552 7.41667 8.05848 7.37549 8.16554 7.37549C8.2726 7.37549 8.37556 7.41667 8.45309 7.49049C8.53063 7.56432 8.5768 7.66514 8.58204 7.77207ZM10.665 14.8551C12.749 14.8551 14.415 13.3281 14.415 11.9381H6.91504C6.91504 13.3281 8.58204 14.8551 10.665 14.8551Z" fill="#FEC84B"/>
<path d="M13.165 7.77198H13.174M8.16503 7.77198H8.17403M18.999 10.272C18.999 12.4822 18.121 14.6018 16.5582 16.1647C14.9954 17.7275 12.8757 18.6055 10.6655 18.6055C8.45535 18.6055 6.33569 17.7275 4.77286 16.1647C3.21002 14.6018 2.33203 12.4822 2.33203 10.272C2.33203 8.06179 3.21002 5.94214 4.77286 4.3793C6.33569 2.81647 8.45535 1.93848 10.6655 1.93848C12.8757 1.93848 14.9954 2.81647 16.5582 4.3793C18.121 5.94214 18.999 8.06179 18.999 10.272ZM13.582 7.77198C13.5848 7.82839 13.5761 7.88478 13.5564 7.93771C13.5367 7.99065 13.5065 8.03904 13.4675 8.07995C13.4286 8.12085 13.3817 8.15342 13.3298 8.17567C13.2779 8.19792 13.222 8.20939 13.1655 8.20939C13.1091 8.20939 13.0532 8.19792 13.0012 8.17567C12.9493 8.15342 12.9025 8.12085 12.8635 8.07995C12.8246 8.03904 12.7944 7.99065 12.7747 7.93771C12.755 7.88478 12.7463 7.82839 12.749 7.77198C12.7543 7.66504 12.8004 7.56422 12.878 7.4904C12.9555 7.41657 13.0585 7.37539 13.1655 7.37539C13.2726 7.37539 13.3756 7.41657 13.4531 7.4904C13.5306 7.56422 13.5768 7.66504 13.582 7.77198ZM8.58203 7.77198C8.5848 7.82839 8.57607 7.88478 8.55639 7.93771C8.53671 7.99065 8.50647 8.03904 8.46753 8.07995C8.42858 8.12085 8.38173 8.15342 8.32982 8.17567C8.2779 8.19792 8.22201 8.20939 8.16553 8.20939C8.10905 8.20939 8.05316 8.19792 8.00125 8.17567C7.94934 8.15342 7.90248 8.12085 7.86354 8.07995C7.82459 8.03904 7.79436 7.99065 7.77467 7.93771C7.75499 7.88478 7.74627 7.82839 7.74903 7.77198C7.75427 7.66504 7.80044 7.56422 7.87798 7.4904C7.95551 7.41657 8.05847 7.37539 8.16553 7.37539C8.27259 7.37539 8.37555 7.41657 8.45309 7.4904C8.53062 7.56422 8.57679 7.66504 8.58203 7.77198ZM10.665 14.855C12.749 14.855 14.415 13.328 14.415 11.938H6.91503C6.91503 13.328 8.58203 14.855 10.665 14.855Z" stroke="black" stroke-linecap="round" stroke-linejoin="round"/>
</svg>
