<svg width="21" height="21" viewBox="0 0 21 21" fill="none" xmlns="http://www.w3.org/2000/svg">
<path d="M4 6.77197C4 5.37197 4 4.67197 4.272 4.13697C4.51173 3.66633 4.89435 3.2837 5.365 3.04397C5.9 2.77197 6.6 2.77197 8 2.77197H13.333C14.733 2.77197 15.433 2.77197 15.968 3.04397C16.4386 3.2837 16.8213 3.66633 17.061 4.13697C17.333 4.67197 17.333 5.37197 17.333 6.77197V17.772L15.042 16.105L12.958 17.772L10.667 16.105L8.375 17.772L6.292 16.105L4 17.772V6.77197Z" fill="#FDA29B"/>
<path d="M8.167 9.02197L9.833 10.689L13.583 6.93897M17.333 17.772V6.77197C17.333 5.37197 17.333 4.67197 17.061 4.13697C16.8213 3.66633 16.4386 3.2837 15.968 3.04397C15.434 2.77197 14.733 2.77197 13.333 2.77197H8C6.6 2.77197 5.9 2.77197 5.365 3.04397C4.89435 3.2837 4.51172 3.66633 4.272 4.13697C4 4.67197 4 5.37197 4 6.77197V17.772L6.292 16.105L8.375 17.772L10.667 16.105L12.958 17.772L15.042 16.105L17.333 17.772Z" stroke="black" stroke-linecap="round" stroke-linejoin="round"/>
</svg>
