<svg width="22" height="22" viewBox="0 0 22 22" fill="none" xmlns="http://www.w3.org/2000/svg">
<path d="M19.2495 19.25L13.7495 13.75M15.5825 9.16697C15.5931 10.0163 15.435 10.8594 15.1173 11.6471C14.7996 12.4349 14.3286 13.1518 13.7318 13.7562C13.1349 14.3605 12.4239 14.8404 11.6402 15.1679C10.8564 15.4954 10.0155 15.6641 9.16602 15.6641C8.31659 15.6641 7.47561 15.4954 6.69185 15.1679C5.9081 14.8404 5.19717 14.3605 4.60029 13.7562C4.00341 13.1518 3.53246 12.4349 3.21476 11.6471C2.89705 10.8594 2.73892 10.0163 2.74952 9.16697C2.7706 7.47909 3.45589 5.86748 4.65693 4.68134C5.85797 3.4952 7.478 2.83008 9.16602 2.83008C10.854 2.83008 12.4741 3.4952 13.6751 4.68134C14.8762 5.86748 15.5615 7.47909 15.5825 9.16697Z" stroke="#9CA3AF" stroke-width="1.50004" stroke-linecap="round" stroke-linejoin="round"/>
</svg>
