<svg width="40" height="41" viewBox="0 0 40 41" fill="none" xmlns="http://www.w3.org/2000/svg">
<rect x="0.357143" y="1.08712" width="39.2857" height="39.2857" rx="19.6429" stroke="#1C1C1C" stroke-opacity="0.1" stroke-width="0.714286"/>
<path fill-rule="evenodd" clip-rule="evenodd" d="M27.501 15.3719C27.501 14.1879 26.542 13.229 25.3581 13.229H14.6438C13.4599 13.229 12.501 14.1879 12.501 15.3719V26.0861C12.501 27.2701 13.4599 28.229 14.6438 28.229H25.3581C26.542 28.229 27.501 27.2701 27.501 26.0861V15.3719Z" fill="#1C1C1C"/>
<path d="M15.4656 25.0901H16.5371L19.3978 21.8383L21.8862 25.0847H24.7951L20.9781 20.0383L24.2085 16.3687H23.1371L20.4826 19.3847L18.2058 16.3713H15.2031L18.8969 21.1901L15.4629 25.0928L15.4656 25.0901ZM16.8344 17.1722H17.8094L23.1826 24.2812H22.2853L16.8371 17.1722H16.8344Z" fill="white"/>
</svg>
