<svg width="18" height="18" viewBox="0 0 18 18" fill="none" xmlns="http://www.w3.org/2000/svg">
<path d="M5.625 4.27495V2.24995C5.625 2.07093 5.69612 1.89924 5.8227 1.77265C5.94929 1.64607 6.12098 1.57495 6.3 1.57495H11.7C11.879 1.57495 12.0507 1.64607 12.1773 1.77265C12.3039 1.89924 12.375 2.07093 12.375 2.24995V4.27495H15.075C15.254 4.27495 15.4257 4.34607 15.5523 4.47265C15.6789 4.59924 15.75 4.77093 15.75 4.94995V14.4C15.75 14.579 15.6789 14.7507 15.5523 14.8772C15.4257 15.0038 15.254 15.075 15.075 15.075H2.925C2.74598 15.075 2.57429 15.0038 2.4477 14.8772C2.32112 14.7507 2.25 14.579 2.25 14.4V4.94995C2.25 4.77093 2.32112 4.59924 2.4477 4.47265C2.57429 4.34607 2.74598 4.27495 2.925 4.27495H5.625ZM3.6 11.025V13.725H14.4V11.025H3.6ZM8.325 8.32495V9.67495H9.675V8.32495H8.325ZM6.975 2.92495V4.27495H11.025V2.92495H6.975Z" fill="#1C1C1C"/>
</svg>
