<svg width="29" height="29" viewBox="0 0 29 29" fill="none" xmlns="http://www.w3.org/2000/svg">
<path d="M14.6925 4.77451C14.5426 4.69882 14.4683 4.66168 14.3897 4.64597C14.3199 4.63282 14.2482 4.63282 14.1784 4.64597C14.0722 4.67521 13.9704 4.71844 13.8756 4.77451L2.85645 10.2834L13.8741 15.7922C14.0241 15.8665 14.0984 15.905 14.1769 15.9193C14.2469 15.9322 14.3183 15.9322 14.3883 15.9193C14.4669 15.905 14.5411 15.8665 14.6911 15.7908L25.7102 10.2834L14.6925 4.77451Z" fill="#7CD4FD"/>
<path d="M19.9971 17.1391V13.7041C19.9971 13.4998 19.9971 13.397 19.9657 13.307C19.9384 13.2267 19.8935 13.1535 19.8343 13.0928C19.7672 13.0242 19.6758 12.9785 19.4915 12.8871L14.2841 10.2834M5.14311 11.426V19.2029C5.14311 19.6285 5.14311 19.8399 5.20881 20.027C5.26775 20.1912 5.36351 20.3398 5.48875 20.4612C5.63015 20.5998 5.82297 20.6883 6.21003 20.8654L13.5228 24.2162C13.8027 24.3447 13.9427 24.409 14.0884 24.4347C14.2169 24.4575 14.3498 24.4575 14.4797 24.4347C14.6254 24.409 14.7654 24.3447 15.0453 24.2162L22.3581 20.8654C22.7437 20.6883 22.938 20.5998 23.0794 20.4612C23.2046 20.3398 23.3004 20.1912 23.3593 20.027C23.425 19.8414 23.425 19.6271 23.425 19.2029V11.426M2.85787 10.2834L13.8756 4.77451C13.9704 4.71844 14.0722 4.67521 14.1784 4.64597C14.2482 4.63282 14.3199 4.63282 14.3897 4.64597C14.4683 4.66168 14.5426 4.69882 14.6925 4.77451L25.7102 10.2834L14.6925 15.7922C14.5426 15.8665 14.4683 15.905 14.3897 15.9193C14.3199 15.9324 14.2482 15.9324 14.1784 15.9193C14.0998 15.905 14.0255 15.8665 13.8756 15.7908L2.85787 10.2834Z" stroke="black" stroke-width="1.42827" stroke-linecap="round" stroke-linejoin="round"/>
</svg>
