<svg width="18" height="18" viewBox="0 0 18 18" fill="none" xmlns="http://www.w3.org/2000/svg">
<path d="M6.97498 7.64998C6.79596 7.64998 6.62427 7.7211 6.49769 7.84769C6.3711 7.97427 6.29998 8.14596 6.29998 8.32498V11.025H7.64998V8.99998H9.67498V10.687L12.037 8.32498L9.67498 5.96198V7.64998H6.97498ZM9.47698 1.83998L16.16 8.52298C16.2864 8.64955 16.3574 8.82111 16.3574 8.99998C16.3574 9.17886 16.2864 9.35042 16.16 9.47698L9.47698 16.16C9.35042 16.2864 9.17886 16.3574 8.99998 16.3574C8.82111 16.3574 8.64955 16.2864 8.52298 16.16L1.83998 9.47698C1.71358 9.35042 1.64258 9.17886 1.64258 8.99998C1.64258 8.82111 1.71358 8.64955 1.83998 8.52298L8.52298 1.83998C8.64955 1.71358 8.82111 1.64258 8.99998 1.64258C9.17886 1.64258 9.35042 1.71358 9.47698 1.83998Z" fill="#1C1C1C"/>
</svg>
