<svg width="16" height="16" viewBox="0 0 16 16" fill="none" xmlns="http://www.w3.org/2000/svg">
<path d="M11.8186 11.218L7.99961 15.037L4.18161 11.218C3.4263 10.4629 2.9119 9.50067 2.70345 8.45315C2.495 7.40562 2.60188 6.31981 3.01056 5.33302C3.41924 4.34624 4.11137 3.50281 4.99942 2.90941C5.88747 2.316 6.93155 1.99927 7.99961 1.99927C9.06768 1.99927 10.1118 2.316 10.9998 2.90941C11.8878 3.50281 12.58 4.34624 12.9887 5.33302C13.3973 6.31981 13.5042 7.40562 13.2958 8.45315C13.0873 9.50067 12.5729 10.4629 11.8176 11.218H11.8186ZM7.99961 9.80002C8.63613 9.80002 9.24658 9.54716 9.69667 9.09708C10.1468 8.64699 10.3996 8.03654 10.3996 7.40002C10.3996 6.7635 10.1468 6.15305 9.69667 5.70296C9.24658 5.25288 8.63613 5.00002 7.99961 5.00002C7.36309 5.00002 6.75264 5.25288 6.30256 5.70296C5.85247 6.15305 5.59961 6.7635 5.59961 7.40002C5.59961 8.03654 5.85247 8.64699 6.30256 9.09708C6.75264 9.54716 7.36309 9.80002 7.99961 9.80002ZM7.99961 8.60002C7.68135 8.60002 7.37613 8.47359 7.15108 8.24855C6.92604 8.02351 6.79961 7.71828 6.79961 7.40002C6.79961 7.08176 6.92604 6.77654 7.15108 6.55149C7.37613 6.32645 7.68135 6.20002 7.99961 6.20002C8.31787 6.20002 8.6231 6.32645 8.84814 6.55149C9.07318 6.77654 9.19961 7.08176 9.19961 7.40002C9.19961 7.71828 9.07318 8.02351 8.84814 8.24855C8.6231 8.47359 8.31787 8.60002 7.99961 8.60002Z" fill="#1C1C1C"/>
</svg>
