<svg width="29" height="29" viewBox="0 0 29 29" fill="none" xmlns="http://www.w3.org/2000/svg">
<mask id="mask0_170_888" style="mask-type:luminance" maskUnits="userSpaceOnUse" x="0" y="-1" width="29" height="30">
<path d="M0 -0.000366211H28.5654V28.5651H0V-0.000366211Z" fill="white"/>
</mask>
<g mask="url(#mask0_170_888)">
<path d="M21.4235 15.1749C21.8394 15.1838 22.2529 15.1096 22.6398 14.9566C23.0266 14.8036 23.379 14.5748 23.6763 14.2838C23.9736 13.9928 24.2098 13.6454 24.371 13.2619C24.5323 12.8784 24.6154 12.4666 24.6154 12.0506C24.6154 11.6346 24.5323 11.2228 24.371 10.8393C24.2098 10.4558 23.9736 10.1084 23.6763 9.81735C23.379 9.52635 23.0266 9.29763 22.6398 9.14461C22.2529 8.9916 21.8394 8.91736 21.4235 8.92625C20.6064 8.94372 19.8287 9.28057 19.257 9.86459C18.6854 10.4486 18.3652 11.2333 18.3652 12.0506C18.3652 12.8678 18.6854 13.6526 19.257 14.2366C19.8287 14.8206 20.6064 15.1575 21.4235 15.1749Z" fill="#5F9548"/>
<path opacity="0.2" d="M22.8585 9.27637C23.1639 9.86509 23.2738 10.5358 23.1725 11.1912C23.0711 11.8466 22.7636 12.4527 22.2947 12.9216C21.8257 13.3906 21.2196 13.698 20.5642 13.7994C19.9088 13.9008 19.2381 13.7908 18.6494 13.4855C18.875 13.922 19.2005 14.2992 19.5993 14.5863C19.9981 14.8734 20.459 15.0624 20.9446 15.1379C21.4302 15.2133 21.9267 15.1732 22.3939 15.0206C22.861 14.8681 23.2856 14.6075 23.6331 14.26C23.9805 13.9125 24.2411 13.488 24.3937 13.0208C24.5462 12.5537 24.5864 12.0572 24.5109 11.5716C24.4354 11.086 24.2465 10.6251 23.9594 10.2263C23.6722 9.82744 23.2951 9.502 22.8585 9.27637Z" fill="black"/>
<path d="M27.2266 22.3164V26.3341C27.2258 26.5707 27.1316 26.7973 26.9643 26.9645C26.7971 27.1318 26.5704 27.226 26.3339 27.2268H17.4072C17.6435 27.2257 17.8697 27.1312 18.0367 26.964C18.2036 26.7968 18.2977 26.5704 18.2985 26.3341V20.5311C18.2985 19.5884 18.1414 18.6515 17.8357 17.7602C18.6913 17.0871 19.7191 16.6683 20.8014 16.5516C21.8838 16.4349 22.9772 16.625 23.9566 17.1002C24.9361 17.5754 25.7621 18.3166 26.3403 19.2389C26.9186 20.1613 27.2257 21.2278 27.2266 22.3164Z" fill="#D0D24B"/>
<path opacity="0.2" d="M25.5255 18.2143C25.3756 18.0659 25.2178 17.9258 25.0528 17.7944C25.8812 18.8228 26.3339 20.104 26.3325 21.4237C26.3291 22.7247 25.8109 23.9715 24.891 24.8916C23.9712 25.8117 22.7246 26.3303 21.4235 26.3341H18.2985C18.2977 26.5703 18.2036 26.7967 18.0367 26.964C17.8697 27.1312 17.6435 27.2256 17.4072 27.2267H26.3339C26.5704 27.226 26.7971 27.1317 26.9643 26.9645C27.1316 26.7972 27.2258 26.5706 27.2266 26.3341V22.3163C27.2272 21.5543 27.0773 20.7996 26.7854 20.0956C26.4934 19.3917 26.0653 18.7523 25.5255 18.2143Z" fill="black"/>
<path d="M9.81882 10.2659C11.0026 10.2659 12.1378 9.79569 12.9749 8.95865C13.8119 8.12161 14.2822 6.98634 14.2822 5.80258C14.2822 4.61883 13.8119 3.48356 12.9749 2.64652C12.1378 1.80948 11.0026 1.33923 9.81882 1.33923C8.63507 1.33923 7.49979 1.80948 6.66275 2.64652C5.82571 3.48356 5.35547 4.61883 5.35547 5.80258C5.35547 6.98634 5.82571 8.12161 6.66275 8.95865C7.49979 9.79569 8.63507 10.2659 9.81882 10.2659Z" fill="#5F9548"/>
<path opacity="0.2" d="M11.5158 1.67468C12.1353 2.44647 12.4805 3.40234 12.4971 4.39183C12.5137 5.38131 12.2007 6.34823 11.6075 7.14036C11.0143 7.93249 10.1746 8.50486 9.22038 8.76737C8.2662 9.02987 7.25182 8.96761 6.33691 8.59038C6.76251 9.12227 7.30425 9.54965 7.92059 9.83977C8.53694 10.1299 9.21153 10.275 9.89265 10.264C10.5738 10.2531 11.2433 10.0863 11.85 9.77651C12.4567 9.46671 12.9844 9.0221 13.3927 8.47679C13.8009 7.93147 14.0789 7.29991 14.2053 6.63053C14.3317 5.96115 14.3031 5.27172 14.1218 4.61508C13.9405 3.95844 13.6112 3.35204 13.1593 2.84236C12.7073 2.33268 12.1461 1.93324 11.5158 1.67468Z" fill="black"/>
<path d="M18.2996 20.5309V26.334C18.2988 26.5708 18.2044 26.7976 18.0368 26.9649C17.8693 27.1322 17.6423 27.2263 17.4055 27.2267H2.23154C1.99502 27.2259 1.7684 27.1316 1.60116 26.9644C1.43391 26.7971 1.33962 26.5705 1.33887 26.334V20.5309C1.33887 18.282 2.23226 16.1251 3.8225 14.5349C5.41274 12.9447 7.56958 12.0513 9.81852 12.0513C12.0675 12.0513 14.2243 12.9447 15.8145 14.5349C17.4048 16.1251 18.2996 18.282 18.2996 20.5309Z" fill="#D0D24B"/>
<path opacity="0.2" d="M17.8359 17.7584C17.2816 16.1432 16.2445 14.7373 14.8651 13.7307C15.9384 15.1822 16.5167 16.9402 16.5147 18.7454C16.5149 19.6247 16.3418 20.4955 16.0054 21.3079C15.669 22.1204 15.1758 22.8586 14.554 23.4804C13.9322 24.1022 13.194 24.5954 12.3815 24.9318C11.5691 25.2682 10.6983 25.4413 9.81897 25.4411H1.33789V26.3338C1.33864 26.5703 1.43293 26.7969 1.60018 26.9642C1.76742 27.1314 1.99404 27.2257 2.23056 27.2265H17.4074C17.6437 27.2253 17.8699 27.1309 18.0368 26.9637C18.2038 26.7965 18.2979 26.5701 18.2986 26.3338V20.5307C18.2986 19.5881 18.1415 18.6511 17.8359 17.7599V17.7584Z" fill="black"/>
</g>
</svg>
