<svg width="13" height="13" viewBox="0 0 13 13" fill="none" xmlns="http://www.w3.org/2000/svg">
<path d="M12.15 9.058V11.445C12.1502 11.616 12.0854 11.7807 11.9689 11.9058C11.8523 12.0309 11.6926 12.1071 11.522 12.119C11.227 12.139 10.986 12.15 10.8 12.15C4.835 12.15 0 7.315 0 1.35C0 1.164 0.0100001 0.923004 0.0310001 0.628004C0.0429064 0.457423 0.119109 0.297719 0.244215 0.181152C0.369321 0.0645843 0.534005 -0.000157795 0.705 3.89439e-06H3.091C3.17494 -0.000399448 3.25602 0.0305409 3.31835 0.0867685C3.38068 0.142996 3.41978 0.220463 3.428 0.304004C3.443 0.459004 3.458 0.583004 3.471 0.676004C3.605 1.613 3.88 2.523 4.286 3.377C4.3171 3.44231 4.32422 3.51647 4.30612 3.5865C4.28801 3.65653 4.24585 3.71795 4.187 3.76L2.73 4.8C3.62058 6.87547 5.27453 8.52943 7.35 9.42L8.39 7.966C8.43256 7.90691 8.49444 7.86456 8.56494 7.84629C8.63544 7.82803 8.7101 7.835 8.776 7.866C9.74365 8.32456 10.7827 8.61407 11.848 8.722C11.9312 8.73044 12.0083 8.7695 12.0643 8.8316C12.1203 8.89369 12.1512 8.97439 12.151 9.058H12.15Z" fill="#1C1C1C"/>
</svg>
