<svg width="29" height="29" viewBox="0 0 29 29" fill="none" xmlns="http://www.w3.org/2000/svg">
<mask id="mask0_170_863" style="mask-type:luminance" maskUnits="userSpaceOnUse" x="0" y="0" width="29" height="29">
<path d="M0 0H28.5654V28.5654H0V0Z" fill="white"/>
</mask>
<g mask="url(#mask0_170_863)">
<path d="M27.5832 9.51229C27.546 9.39803 27.4032 9.1638 26.9833 8.99812C24.9409 8.18971 21.7915 7.53414 19.1849 7.12565C17.9838 4.81185 16.377 2.06671 14.9658 0.404201C14.6745 0.0614157 14.4045 0 14.2831 0C14.1617 0 13.8932 0.0614157 13.6018 0.404201C12.1878 2.06671 10.5825 4.81042 9.3827 7.12565C6.77468 7.53414 3.62677 8.18971 1.58434 8.99669C1.163 9.16379 1.0216 9.3966 0.984463 9.51087C0.945899 9.62513 0.921619 9.8965 1.163 10.275C2.33275 12.1103 4.48801 14.4627 6.35334 16.3023C5.942 18.8689 5.6035 22.0182 5.75346 24.1792C5.78346 24.6248 5.96628 24.8305 6.0634 24.9005C6.16195 24.9719 6.41618 25.0776 6.85609 24.9691C8.99136 24.4406 11.9293 23.1494 14.2831 21.9725C16.6369 23.1494 19.5749 24.442 21.7101 24.9676C22.15 25.0776 22.4057 24.9719 22.5028 24.9005C22.6028 24.8305 22.7828 24.6248 22.8142 24.1792C22.9641 22.0182 22.6242 18.8689 22.2143 16.3009C24.0782 14.4627 26.2349 12.1103 27.4032 10.2736C27.6446 9.8965 27.6203 9.62513 27.5832 9.51229Z" fill="#BF2D00"/>
<path d="M27.2562 9.64648C26.2236 9.97499 14.2832 13.7956 14.2832 13.7956L22.0187 16.2694C23.8369 14.4755 25.9408 12.1817 27.0805 10.3906C27.3162 10.0207 27.2933 9.75646 27.2562 9.64648Z" fill="#FFAA00"/>
<path d="M27.2562 9.64669C26.2236 9.97519 14.2832 13.7958 14.2832 13.7958L19.0636 7.3186C21.606 7.71709 24.6782 8.35696 26.6692 9.14536C27.082 9.30819 27.2205 9.53528 27.2562 9.64526V9.64669Z" fill="#FFDB66"/>
<path d="M22.3015 24.658L14.2832 13.7946V21.8014C16.5784 22.9498 19.445 24.2095 21.5274 24.7237C21.9559 24.8308 22.2058 24.7266 22.3015 24.658Z" fill="#F58300"/>
<path d="M22.3017 24.658L14.2834 13.7946L22.0189 16.2683C22.4188 18.7735 22.7501 21.8457 22.6045 23.9539C22.5745 24.3881 22.3974 24.5894 22.3017 24.658ZM6.26503 24.658L14.2834 13.7946L6.54783 16.2698C6.14791 18.7735 5.81512 21.8457 5.96224 23.9539C5.99223 24.3881 6.16934 24.5894 6.26503 24.658Z" fill="#FFDB66"/>
<path d="M6.26465 24.658L14.283 13.7946V21.8014C11.9877 22.9498 9.12119 24.2095 7.03877 24.7237C6.60886 24.8294 6.36034 24.7266 6.26465 24.658Z" fill="#FFAA00"/>
<path d="M1.30957 9.64669L14.2826 13.7958L9.50214 7.3186C6.95839 7.71709 3.8876 8.35696 1.89516 9.14536C1.48525 9.30819 1.34528 9.53528 1.30957 9.64526V9.64669Z" fill="#FFDB66"/>
<path d="M1.30946 9.64634L14.2825 13.7955L6.54694 16.2678C4.72732 14.4739 2.6249 12.183 1.48514 10.3905C1.24948 10.0206 1.27233 9.75489 1.30946 9.64634ZM14.2825 0.368286V13.794L19.0643 7.31826C17.8931 5.06016 16.3263 2.38358 14.948 0.762489C14.6638 0.428274 14.401 0.368286 14.2825 0.368286Z" fill="#F58300"/>
<path d="M14.2838 0.368286V13.794L9.50195 7.31826C10.6731 5.06159 12.2414 2.38358 13.6182 0.762489C13.9025 0.428274 14.1653 0.368286 14.2838 0.368286Z" fill="#FFAA00"/>
<path d="M14.6203 13.8261L20.2163 11.8494L14.5061 13.4847L14.3247 7.63452L14.1404 13.4862L8.43164 11.8479L14.029 13.8261L10.6812 18.6651L14.3233 14.0375L17.9654 18.6651L14.6203 13.8261ZM14.3204 13.7332L14.3233 13.729L14.3275 13.7304V13.7347L14.3233 13.7361L14.3204 13.7332Z" fill="#FFF8E0"/>
<path d="M20.1989 5.9557C20.9773 6.45845 24.0052 2.55212 23.1454 1.90797C22.287 1.26382 19.4176 5.45152 20.1989 5.9557ZM21.9114 6.67698C22.4541 7.2997 25.2236 5.49151 24.6394 4.71596C24.0252 3.90327 21.3372 6.01997 21.9114 6.67698ZM19.1705 4.68168C19.9875 4.85022 21.0659 1.75658 20.1218 1.49092C19.132 1.21383 18.3093 4.50457 19.1705 4.68168ZM23.7496 16.7163C24.0809 15.8579 28.8628 17.2662 28.5514 18.2845C28.2415 19.3015 23.4197 17.5733 23.7496 16.7163ZM24.7051 15.1395C24.7722 14.3225 28.093 14.1825 28.083 15.1481C28.0715 16.1607 24.6337 16.0036 24.7051 15.1395ZM23.6796 18.3388C24.2381 17.7304 26.9589 19.61 26.3533 20.3698C25.7192 21.1668 23.0883 18.9801 23.6796 18.3388ZM4.81641 16.7163C4.48505 15.8579 -0.296802 17.2662 0.0145609 18.2845C0.324496 19.3015 5.14634 17.5733 4.81641 16.7163ZM3.8609 15.1395C3.79377 14.3225 0.474465 14.1825 0.483034 15.1481C0.49446 16.1607 3.93374 16.0036 3.8609 15.1395ZM4.8864 18.3388C4.32794 17.7304 1.60708 19.61 2.21267 20.3698C2.84682 21.1668 5.4777 18.9801 4.8864 18.3388ZM14.283 23.5863C15.2142 23.6291 15.3342 28.541 14.2544 28.5652C13.1747 28.5895 13.3518 23.542 14.283 23.5863ZM16.0998 23.9905C16.911 23.8005 18.0736 26.8656 17.1381 27.1541C16.1569 27.4583 15.2428 24.1919 16.0998 23.9905ZM12.6919 24.0233C13.4517 24.3576 12.4791 27.4855 11.5579 27.1555C10.5923 26.807 11.8878 23.6706 12.6919 24.0233ZM8.36853 5.9557C7.58869 6.45845 4.56218 2.55212 5.42057 1.90797C6.27896 1.26382 9.14836 5.45152 8.36853 5.9557ZM6.6546 6.67698C6.11185 7.2997 3.34244 5.49151 3.9266 4.71596C4.54076 3.90327 7.22876 6.01997 6.6546 6.67698ZM9.39545 4.68168C8.57991 4.85022 7.50156 1.75658 8.44422 1.49092C9.43402 1.21383 10.2581 4.50457 9.39545 4.68168Z" fill="#FFDB66"/>
</g>
</svg>
