<svg width="16" height="16" viewBox="0 0 16 16" fill="none" xmlns="http://www.w3.org/2000/svg">
<path d="M8.0002 9.20002V14H3.2002C3.2002 12.727 3.70591 11.5061 4.60608 10.6059C5.50626 9.70574 6.72716 9.20002 8.0002 9.20002ZM11.6002 13.7L9.8372 14.627L10.1732 12.664L8.7472 11.274L10.7192 10.987L11.6002 9.20002L12.4822 10.987L14.4532 11.273L13.0272 12.664L13.3632 14.627L11.6002 13.7ZM8.0002 8.60002C7.5274 8.60016 7.05921 8.50713 6.62238 8.32626C6.18555 8.14539 5.78863 7.88022 5.45432 7.5459C5.12 7.21158 4.85483 6.81467 4.67396 6.37784C4.49309 5.94101 4.40006 5.47282 4.4002 5.00002C4.4002 3.01102 6.0102 1.40002 8.0002 1.40002C8.95498 1.40002 9.87065 1.77931 10.5458 2.45444C11.2209 3.12957 11.6002 4.04524 11.6002 5.00002C11.6002 5.9548 11.2209 6.87048 10.5458 7.54561C9.87065 8.22074 8.95498 8.60002 8.0002 8.60002Z" fill="#1C1C1C"/>
</svg>
