<svg width="21" height="22" viewBox="0 0 21 22" fill="none" xmlns="http://www.w3.org/2000/svg">
<path d="M9.82496 3.48275C10.0254 3.07615 10.1261 2.87285 10.262 2.80825C10.3807 2.75125 10.5185 2.75125 10.6372 2.80825C10.7731 2.87285 10.8738 3.07615 11.0742 3.48275L12.979 7.33975C13.0379 7.4604 13.0673 7.52025 13.111 7.56775C13.149 7.6086 13.1956 7.64185 13.2459 7.6656C13.3039 7.6922 13.3694 7.7017 13.5024 7.72165L17.7622 8.3439C18.2106 8.40945 18.4348 8.44175 18.5384 8.55195C18.6286 8.64695 18.6714 8.77805 18.6543 8.9082C18.6353 9.05735 18.4719 9.216 18.147 9.53235L15.0661 12.5334C14.9711 12.6265 14.9227 12.6731 14.8913 12.7291C14.8637 12.7784 14.846 12.8326 14.8391 12.8887C14.8315 12.9514 14.8429 13.0179 14.8657 13.15L15.5924 17.3889C15.6694 17.8354 15.7083 18.0596 15.6361 18.1916C15.6051 18.2487 15.5617 18.2981 15.5091 18.3363C15.4565 18.3744 15.396 18.4003 15.3321 18.412C15.1839 18.4405 14.9835 18.3341 14.5816 18.1232L10.774 16.1206C10.6992 16.0742 10.6183 16.0384 10.5337 16.0142C10.4784 16.0034 10.4217 16.0034 10.3665 16.0142C10.2815 16.0383 10.2003 16.0741 10.1252 16.1206L6.31756 18.1232C5.91571 18.3341 5.71526 18.4396 5.56706 18.412C5.50315 18.4003 5.44267 18.3744 5.39006 18.3363C5.33746 18.2981 5.29406 18.2487 5.26306 18.1916C5.19181 18.0586 5.22981 17.8354 5.30676 17.3889L6.03351 13.15C6.05631 13.017 6.06771 12.9514 6.06011 12.8887C6.05322 12.8326 6.03548 12.7784 6.00786 12.7291C5.97746 12.6731 5.92901 12.6265 5.83306 12.5334L2.75221 9.5314C2.42731 9.216 2.26486 9.05735 2.24491 8.9082C2.23648 8.84394 2.2425 8.7786 2.26256 8.71697C2.28261 8.65533 2.31618 8.59895 2.36081 8.55195C2.46531 8.44175 2.68856 8.40945 3.13696 8.34295L7.39676 7.72165C7.52976 7.70265 7.59626 7.6922 7.65326 7.66465C7.70445 7.64114 7.75059 7.60791 7.78911 7.5668C7.83186 7.52025 7.86131 7.4604 7.92116 7.33975L9.82496 3.48275Z" fill="#FEC84B" stroke="#F79009" stroke-width="0.95" stroke-linecap="round" stroke-linejoin="round"/>
</svg>
