<svg width="26" height="26" viewBox="0 0 26 26" fill="none" xmlns="http://www.w3.org/2000/svg">
<path d="M13.6685 1.45234L16.3708 7.6182C16.4722 7.85066 16.6344 8.05155 16.8402 8.19981C17.046 8.34807 17.2879 8.43825 17.5405 8.46088L24.1248 9.05075C24.8704 9.15787 25.1675 10.072 24.6276 10.599L19.6672 14.7667C19.4702 14.9318 19.322 15.1476 19.2384 15.3907C19.1549 15.6338 19.1392 15.8951 19.193 16.1464L20.6356 22.8964C20.6647 23.0636 20.6463 23.2356 20.5826 23.3929C20.5188 23.5501 20.4122 23.6863 20.2749 23.786C20.1375 23.8857 19.975 23.9449 19.8057 23.9568C19.6364 23.9687 19.4672 23.9328 19.3173 23.8534L13.5685 20.4869C13.3519 20.36 13.1054 20.2931 12.8543 20.2931C12.6033 20.2931 12.3568 20.36 12.1402 20.4869L6.38998 23.8505C6.24004 23.929 6.07115 23.9641 5.90236 23.9517C5.73356 23.9394 5.57158 23.8801 5.43466 23.7806C5.29775 23.6811 5.19135 23.5453 5.12747 23.3886C5.06359 23.2319 5.04476 23.0604 5.07312 22.8936L6.51567 16.1436C6.56919 15.8922 6.55334 15.631 6.46981 15.388C6.38628 15.1449 6.23822 14.9292 6.04149 14.7638L1.07824 10.6004C0.957247 10.4822 0.871667 10.3326 0.831141 10.1683C0.790615 10.0041 0.796753 9.8318 0.848863 9.67087C0.900973 9.50993 0.996986 9.36675 1.12609 9.25744C1.25518 9.14813 1.41224 9.07704 1.57956 9.05218L8.16676 8.46231C8.4191 8.43928 8.66063 8.34894 8.86614 8.20071C9.07165 8.05248 9.2336 7.8518 9.33508 7.61962L12.0388 1.45377C12.1138 1.30196 12.2297 1.17412 12.3735 1.08468C12.5172 0.995251 12.6832 0.947781 12.8525 0.947632C13.0218 0.947484 13.1878 0.994662 13.3317 1.08384C13.4756 1.17303 13.5932 1.30066 13.6685 1.45234Z" fill="#FDB022"/>
<path d="M13.4709 7.98839L13.0138 3.44506C12.9953 3.19082 12.9424 2.75806 13.348 2.75806C13.6694 2.75806 13.8436 3.42649 13.8436 3.42649L15.2176 7.0743C15.7361 8.46115 15.5233 8.93819 15.0234 9.21956C14.4492 9.54092 13.6008 9.28955 13.4709 7.98839Z" fill="white"/>
<path d="M19.136 14.3623L23.078 11.2872C23.2723 11.1244 23.6236 10.8659 23.3423 10.5702C23.1194 10.3374 22.5167 10.6731 22.5167 10.6731L19.0674 12.0199C18.0391 12.377 17.3564 12.9026 17.2964 13.5653C17.2178 14.448 18.0105 15.1293 19.136 14.3623Z" fill="#FFE394"/>
</svg>
