<svg width="18" height="18" viewBox="0 0 18 18" fill="none" xmlns="http://www.w3.org/2000/svg">
<path d="M9.6748 15.75C8.78838 15.75 7.91064 15.5754 7.09169 15.2362C6.27274 14.897 5.52863 14.3998 4.90183 13.773C4.27504 13.1462 3.77784 12.4021 3.43862 11.5831C3.0994 10.7642 2.9248 9.88642 2.9248 9C2.9248 8.11358 3.0994 7.23583 3.43862 6.41689C3.77784 5.59794 4.27504 4.85382 4.90183 4.22703C5.52863 3.60023 6.27274 3.10303 7.09169 2.76381C7.91064 2.42459 8.78838 2.25 9.6748 2.25C11.465 2.25 13.1819 2.96116 14.4478 4.22703C15.7136 5.4929 16.4248 7.20979 16.4248 9C16.4248 10.7902 15.7136 12.5071 14.4478 13.773C13.1819 15.0388 11.465 15.75 9.6748 15.75ZM6.2998 8.662L8.9998 9.675L10.0118 12.376L12.3748 6.3L6.2998 8.662Z" fill="#1C1C1C"/>
</svg>
