<svg width="29" height="29" viewBox="0 0 29 29" fill="none" xmlns="http://www.w3.org/2000/svg">
<mask id="mask0_170_880" style="mask-type:luminance" maskUnits="userSpaceOnUse" x="0" y="-1" width="29" height="30">
<path d="M0 -0.000366211H28.5654V28.5651H0V-0.000366211Z" fill="white"/>
</mask>
<g mask="url(#mask0_170_880)">
<path d="M27.6165 6.36548C27.5369 4.95117 26.9392 3.61571 25.9376 2.61406C24.9359 1.61241 23.6005 1.01475 22.1862 0.935189C16.921 0.637652 11.6432 0.637652 6.37805 0.935189C4.96374 1.01475 3.62827 1.61241 2.62662 2.61406C1.62498 3.61571 1.02732 4.95117 0.947756 6.36548C0.650227 11.6307 0.650227 16.9084 0.947756 22.1736C1.02732 23.5879 1.62498 24.9234 2.62662 25.925C3.62827 26.9267 4.96374 27.5243 6.37805 27.6039C11.6341 27.9024 16.9301 27.9024 22.1862 27.6039C23.6005 27.5243 24.9359 26.9267 25.9376 25.925C26.9392 24.9234 27.5369 23.5879 27.6165 22.1736C27.9141 16.9084 27.9141 11.6306 27.6165 6.36548Z" fill="url(#paint0_linear_170_880)"/>
<path d="M22.0196 13.8351H23.038C22.9373 11.8202 22.1419 9.90238 20.787 8.40768L20.2443 8.95328C20.2028 8.99504 20.1536 9.02818 20.0993 9.0508C20.045 9.07342 19.9867 9.08507 19.9279 9.08507C19.8691 9.08507 19.8108 9.07342 19.7565 9.0508C19.7022 9.02818 19.653 8.99504 19.6115 8.95328C19.57 8.91188 19.537 8.86269 19.5145 8.80852C19.492 8.75436 19.4805 8.69628 19.4805 8.63763C19.4805 8.57898 19.492 8.52091 19.5145 8.46674C19.537 8.41258 19.57 8.36338 19.6115 8.32198L20.1557 7.77781C18.661 6.4229 16.7432 5.6275 14.7283 5.52686V6.54521C14.7218 6.65922 14.672 6.76644 14.589 6.84487C14.506 6.92331 14.3961 6.967 14.2819 6.967C14.1677 6.967 14.0579 6.92331 13.9749 6.84487C13.8919 6.76644 13.8421 6.65922 13.8356 6.54521V5.52686C11.8207 5.6275 9.90287 6.4229 8.40817 7.77781L8.95377 8.32056C8.99531 8.36201 9.02829 8.41124 9.05081 8.46543C9.07333 8.51963 9.08495 8.57773 9.08502 8.63641C9.08509 8.6951 9.07359 8.75323 9.0512 8.80747C9.0288 8.86172 8.99593 8.91102 8.95448 8.95257C8.91303 8.99411 8.8638 9.02709 8.80961 9.04961C8.75541 9.07213 8.69731 9.08375 8.63863 9.08382C8.57994 9.08388 8.52181 9.07239 8.46757 9.04999C8.41332 9.0276 8.36402 8.99473 8.32247 8.95328L7.7783 8.40911C6.42338 9.90381 5.62798 11.8217 5.52734 13.8365H6.5457C6.65773 13.8455 6.76226 13.8964 6.83849 13.9789C6.91472 14.0615 6.95704 14.1698 6.95704 14.2822C6.95704 14.3945 6.91472 14.5028 6.83849 14.5854C6.76226 14.668 6.65773 14.7188 6.5457 14.7278H5.52734C5.62798 16.7427 6.42338 18.6605 7.7783 20.1552L8.32104 19.6125C8.40457 19.5286 8.51801 19.4813 8.6364 19.481C8.75479 19.4807 8.86844 19.5275 8.95234 19.611C9.03625 19.6946 9.08353 19.808 9.0838 19.9264C9.08407 20.0448 9.03729 20.1584 8.95377 20.2423L8.4096 20.7865C9.9043 22.1414 11.8221 22.9368 13.837 23.0375V22.0191C13.846 21.9071 13.8968 21.8026 13.9794 21.7263C14.062 21.6501 14.1703 21.6078 14.2827 21.6078C14.395 21.6078 14.5033 21.6501 14.5859 21.7263C14.6685 21.8026 14.7193 21.9071 14.7283 22.0191V23.0375C16.7432 22.9368 18.661 22.1414 20.1557 20.7865L19.613 20.2438C19.5714 20.2024 19.5384 20.1533 19.5159 20.0992C19.4933 20.0451 19.4816 19.987 19.4815 19.9284C19.4814 19.8698 19.4928 19.8117 19.5151 19.7575C19.5374 19.7033 19.5702 19.654 19.6115 19.6125C19.6529 19.5709 19.702 19.5379 19.7561 19.5154C19.8102 19.4928 19.8683 19.4811 19.9269 19.481C19.9855 19.4809 20.0436 19.4923 20.0978 19.5146C20.152 19.5369 20.2013 19.5697 20.2428 19.611L20.787 20.1552C22.1419 18.6605 22.9373 16.7427 23.038 14.7278H22.0196C21.9056 14.7213 21.7984 14.6715 21.7199 14.5885C21.6415 14.5055 21.5978 14.3956 21.5978 14.2815C21.5978 14.1673 21.6415 14.0574 21.7199 13.9744C21.7984 13.8914 21.9056 13.8416 22.0196 13.8351ZM18.4489 14.7292H14.7297V15.4719C14.7297 15.5905 14.6826 15.7042 14.5988 15.788C14.5149 15.8719 14.4012 15.919 14.2827 15.919C14.1641 15.919 14.0504 15.8719 13.9665 15.788C13.8827 15.7042 13.8356 15.5905 13.8356 15.4719V14.7292H13.0929C12.9743 14.7292 12.8606 14.6821 12.7768 14.5983C12.693 14.5144 12.6459 14.4007 12.6459 14.2822C12.6459 14.1636 12.693 14.0499 12.7768 13.9661C12.8606 13.8822 12.9743 13.8351 13.0929 13.8351H13.8356V9.52173C13.8356 9.40317 13.8827 9.28946 13.9665 9.20562C14.0504 9.12178 14.1641 9.07468 14.2827 9.07468C14.4012 9.07468 14.5149 9.12178 14.5988 9.20562C14.6826 9.28946 14.7297 9.40317 14.7297 9.52173V13.8351H18.4489C18.5675 13.8351 18.6812 13.8822 18.765 13.9661C18.8489 14.0499 18.896 14.1636 18.896 14.2822C18.896 14.4007 18.8489 14.5144 18.765 14.5983C18.6812 14.6821 18.5675 14.7292 18.4489 14.7292Z" fill="url(#paint1_linear_170_880)"/>
</g>
<defs>
<linearGradient id="paint0_linear_170_880" x1="14.2821" y1="1.08801" x2="14.2821" y2="27.4953" gradientUnits="userSpaceOnUse">
<stop stop-color="#FFEEF1"/>
<stop offset="1" stop-color="#FFC6CF"/>
</linearGradient>
<linearGradient id="paint1_linear_170_880" x1="14.2827" y1="5.30547" x2="14.2827" y2="23.9944" gradientUnits="userSpaceOnUse">
<stop stop-color="#FD4685"/>
<stop offset="1" stop-color="#FF9D8C"/>
</linearGradient>
</defs>
</svg>
